{
  "asset": {
    "version": "2.0",
    "generator": "THREE.GLTFExporter r168dev"
  },
  "scenes": [
    {
      "name": "Scene",
      "nodes": [
        0,
        8
      ]
    }
  ],
  "scene": 0,
  "nodes": [
    {
      "matrix": [
        1,
        0,
        0,
        0,
        0,
        1,
        0,
        0,
        0,
        0,
        1,
        0,
        0,
        10,
        0,
        1
      ],
      "name": "HemisphereLight"
    },
    {
      "name": "phat6_7",
      "mesh": 0
    },
    {
      "name": "phat6_3",
      "mesh": 1
    },
    {
      "name": "phat6_6",
      "mesh": 2
    },
    {
      "name": "phat6_5",
      "mesh": 3
    },
    {
      "name": "phat6_2",
      "mesh": 4
    },
    {
      "name": "phat6_1",
      "mesh": 5
    },
    {
      "name": "phat6_4",
      "mesh": 6
    },
    {
      "name": "phat6.obj",
      "children": [
        1,
        2,
        3,
        4,
        5,
        6,
        7
      ]
    }
  ],
  "bufferViews": [
    {
      "buffer": 0,
      "byteOffset": 0,
      "byteLength": 20736,
      "target": 34962,
      "byteStride": 12
    },
    {
      "buffer": 0,
      "byteOffset": 20736,
      "byteLength": 20736,
      "target": 34962,
      "byteStride": 12
    },
    {
      "buffer": 0,
      "byteOffset": 41472,
      "byteLength": 13824,
      "target": 34962,
      "byteStride": 8
    },
    {
      "buffer": 0,
      "byteOffset": 55296,
      "byteLength": 19440,
      "target": 34962,
      "byteStride": 12
    },
    {
      "buffer": 0,
      "byteOffset": 74736,
      "byteLength": 19440,
      "target": 34962,
      "byteStride": 12
    },
    {
      "buffer": 0,
      "byteOffset": 94176,
      "byteLength": 12960,
      "target": 34962,
      "byteStride": 8
    },
    {
      "buffer": 0,
      "byteOffset": 107136,
      "byteLength": 31104,
      "target": 34962,
      "byteStride": 12
    },
    {
      "buffer": 0,
      "byteOffset": 138240,
      "byteLength": 31104,
      "target": 34962,
      "byteStride": 12
    },
    {
      "buffer": 0,
      "byteOffset": 169344,
      "byteLength": 20736,
      "target": 34962,
      "byteStride": 8
    },
    {
      "buffer": 0,
      "byteOffset": 190080,
      "byteLength": 20736,
      "target": 34962,
      "byteStride": 12
    },
    {
      "buffer": 0,
      "byteOffset": 210816,
      "byteLength": 20736,
      "target": 34962,
      "byteStride": 12
    },
    {
      "buffer": 0,
      "byteOffset": 231552,
      "byteLength": 13824,
      "target": 34962,
      "byteStride": 8
    },
    {
      "buffer": 0,
      "byteOffset": 245376,
      "byteLength": 20736,
      "target": 34962,
      "byteStride": 12
    },
    {
      "buffer": 0,
      "byteOffset": 266112,
      "byteLength": 20736,
      "target": 34962,
      "byteStride": 12
    },
    {
      "buffer": 0,
      "byteOffset": 286848,
      "byteLength": 13824,
      "target": 34962,
      "byteStride": 8
    },
    {
      "buffer": 0,
      "byteOffset": 300672,
      "byteLength": 23328,
      "target": 34962,
      "byteStride": 12
    },
    {
      "buffer": 0,
      "byteOffset": 324000,
      "byteLength": 23328,
      "target": 34962,
      "byteStride": 12
    },
    {
      "buffer": 0,
      "byteOffset": 347328,
      "byteLength": 15552,
      "target": 34962,
      "byteStride": 8
    },
    {
      "buffer": 0,
      "byteOffset": 362880,
      "byteLength": 24624,
      "target": 34962,
      "byteStride": 12
    },
    {
      "buffer": 0,
      "byteOffset": 387504,
      "byteLength": 24624,
      "target": 34962,
      "byteStride": 12
    },
    {
      "buffer": 0,
      "byteOffset": 412128,
      "byteLength": 16416,
      "target": 34962,
      "byteStride": 8
    }
  ],
  "buffers": [
    {
      "byteLength": 428544,
      "uri": "data:application/octet-stream;base64,"
    }
  ],
  "accessors": [
    {
      "bufferView": 0,
      "componentType": 5126,
      "count": 1728,
      "max": [
        1.1346499919891357,
        0.29259100556373596,
        0.03999999910593033
      ],
      "min": [
        0.8526989817619324,
        -0.10774999856948853,
        -0.09000000357627869
      ],
      "type": "VEC3"
    },
    {
      "bufferView": 1,
      "componentType": 5126,
      "count": 1728,
      "max": [
        0.9639099836349487,
        0.9681800007820129,
        0.9999920129776001
      ],
      "min": [
        -0.9639440178871155,
        -0.9739639759063721,
        -0.9999979734420776
      ],
      "type": "VEC3"
    },
    {
      "bufferView": 2,
      "componentType": 5126,
      "count": 1728,
      "max": [
        0.7191259860992432,
        0.6527940034866333
      ],
      "min": [
        0.5044940114021301,
        0.34803399443626404
      ],
      "type": "VEC2"
    },
    {
      "bufferView": 3,
      "componentType": 5126,
      "count": 1620,
      "max": [
        -0.10354600101709366,
        0.29498401284217834,
        0.036893200129270554
      ],
      "min": [
        -0.4068549871444702,
        -0.1295740008354187,
        -0.08689309656620026
      ],
      "type": "VEC3"
    },
    {
      "bufferView": 4,
      "componentType": 5126,
      "count": 1620,
      "max": [
        0.987496018409729,
        0.9291350245475769,
        0.9974790215492249
      ],
      "min": [
        -0.9895989894866943,
        -0.9562649726867676,
        -0.9974790215492249
      ],
      "type": "VEC3"
    },
    {
      "bufferView": 5,
      "componentType": 5126,
      "count": 1620,
      "max": [
        0.7390530109405518,
        0.9871159791946411
      ],
      "min": [
        0.5081589818000793,
        0.6639209985733032
      ],
      "type": "VEC2"
    },
    {
      "bufferView": 6,
      "componentType": 5126,
      "count": 2592,
      "max": [
        0.814378023147583,
        0.3049190044403076,
        0.03999999910593033
      ],
      "min": [
        0.5552710294723511,
        -0.1258389949798584,
        -0.09000000357627869
      ],
      "type": "VEC3"
    },
    {
      "bufferView": 7,
      "componentType": 5126,
      "count": 2592,
      "max": [
        0.9794470071792603,
        0.9886279702186584,
        0.9999960064888
      ],
      "min": [
        -0.9973660111427307,
        -0.9847239851951599,
        -0.9999960064888
      ],
      "type": "VEC3"
    },
    {
      "bufferView": 8,
      "componentType": 5126,
      "count": 2592,
      "max": [
        0.47532200813293457,
        0.6621789932250977
      ],
      "min": [
        0.27807700634002686,
        0.33426401019096375
      ],
      "type": "VEC2"
    },
    {
      "bufferView": 9,
      "componentType": 5126,
      "count": 1728,
      "max": [
        0.5146459937095642,
        0.29259100556373596,
        0.03999999910593033
      ],
      "min": [
        0.22325399518013,
        -0.10774999856948853,
        -0.09000000357627869
      ],
      "type": "VEC3"
    },
    {
      "bufferView": 10,
      "componentType": 5126,
      "count": 1728,
      "max": [
        0.9639099836349487,
        0.968192994594574,
        0.9999780058860779
      ],
      "min": [
        -0.9612380266189575,
        -0.9765899777412415,
        -0.9999920129776001
      ],
      "type": "VEC3"
    },
    {
      "bufferView": 11,
      "componentType": 5126,
      "count": 1728,
      "max": [
        0.24715200066566467,
        0.6527940034866333
      ],
      "min": [
        0.02532929927110672,
        0.34803399443626404
      ],
      "type": "VEC2"
    },
    {
      "bufferView": 12,
      "componentType": 5126,
      "count": 1728,
      "max": [
        -0.44196000695228577,
        0.29259100556373596,
        0.03999999910593033
      ],
      "min": [
        -0.7372890114784241,
        -0.10774999856948853,
        -0.09000000357627869
      ],
      "type": "VEC3"
    },
    {
      "bufferView": 13,
      "componentType": 5126,
      "count": 1728,
      "max": [
        0.9581559896469116,
        0.9682040214538574,
        0.9999849796295166
      ],
      "min": [
        -0.9638490080833435,
        -0.9751150012016296,
        -0.9999880194664001
      ],
      "type": "VEC3"
    },
    {
      "bufferView": 14,
      "componentType": 5126,
      "count": 1728,
      "max": [
        0.48143500089645386,
        0.985293984413147
      ],
      "min": [
        0.2566159963607788,
        0.6805340051651001
      ],
      "type": "VEC2"
    },
    {
      "bufferView": 15,
      "componentType": 5126,
      "count": 1944,
      "max": [
        -0.757423996925354,
        0.29015499353408813,
        0.03999999910593033
      ],
      "min": [
        -1.0447299480438232,
        -0.11325500160455704,
        -0.09000000357627869
      ],
      "type": "VEC3"
    },
    {
      "bufferView": 16,
      "componentType": 5126,
      "count": 1944,
      "max": [
        0.986877977848053,
        0.950314998626709,
        0.9999989867210388
      ],
      "min": [
        -0.968966007232666,
        -0.9467459917068481,
        -1
      ],
      "type": "VEC3"
    },
    {
      "bufferView": 17,
      "componentType": 5126,
      "count": 1944,
      "max": [
        0.24128800630569458,
        0.983439028263092
      ],
      "min": [
        0.022573500871658325,
        0.6763439774513245
      ],
      "type": "VEC2"
    },
    {
      "bufferView": 18,
      "componentType": 5126,
      "count": 2052,
      "max": [
        0.1858689934015274,
        0.2905009984970093,
        0.03808790072798729
      ],
      "min": [
        -0.08305759727954865,
        -0.12058000266551971,
        -0.08808790147304535
      ],
      "type": "VEC3"
    },
    {
      "bufferView": 19,
      "componentType": 5126,
      "count": 2052,
      "max": [
        0.9731349945068359,
        0.9911400079727173,
        0.9998040199279785
      ],
      "min": [
        -0.9792519807815552,
        -0.9678410291671753,
        -0.9998040199279785
      ],
      "type": "VEC3"
    },
    {
      "bufferView": 20,
      "componentType": 5126,
      "count": 2052,
      "max": [
        0.9593700170516968,
        0.9837030172348022
      ],
      "min": [
        0.7546489834785461,
        0.6707680225372314
      ],
      "type": "VEC2"
    }
  ],
  "materials": [
    {
      "pbrMetallicRoughness": {
        "metallicFactor": 0.5,
        "roughnessFactor": 0.5
      },
      "name": "txt"
    }
  ],
  "meshes": [
    {
      "primitives": [
        {
          "mode": 4,
          "attributes": {
            "POSITION": 0,
            "NORMAL": 1,
            "TEXCOORD_0": 2
          },
          "material": 0
        }
      ]
    },
    {
      "primitives": [
        {
          "mode": 4,
          "attributes": {
            "POSITION": 3,
            "NORMAL": 4,
            "TEXCOORD_0": 5
          },
          "material": 0
        }
      ]
    },
    {
      "primitives": [
        {
          "mode": 4,
          "attributes": {
            "POSITION": 6,
            "NORMAL": 7,
            "TEXCOORD_0": 8
          },
          "material": 0
        }
      ]
    },
    {
      "primitives": [
        {
          "mode": 4,
          "attributes": {
            "POSITION": 9,
            "NORMAL": 10,
            "TEXCOORD_0": 11
          },
          "material": 0
        }
      ]
    },
    {
      "primitives": [
        {
          "mode": 4,
          "attributes": {
            "POSITION": 12,
            "NORMAL": 13,
            "TEXCOORD_0": 14
          },
          "material": 0
        }
      ]
    },
    {
      "primitives": [
        {
          "mode": 4,
          "attributes": {
            "POSITION": 15,
            "NORMAL": 16,
            "TEXCOORD_0": 17
          },
          "material": 0
        }
      ]
    },
    {
      "primitives": [
        {
          "mode": 4,
          "attributes": {
            "POSITION": 18,
            "NORMAL": 19,
            "TEXCOORD_0": 20
          },
          "material": 0
        }
      ]
    }
  ]
}