<?xml version="1.0" standalone="no"?>
<!DOCTYPE svg PUBLIC "-//W3C//DTD SVG 20010904//EN"
 "http://www.w3.org/TR/2001/REC-SVG-20010904/DTD/svg10.dtd">
<svg version="1.0" xmlns="http://www.w3.org/2000/svg"
 width="3000.000000pt" height="838.000000pt" viewBox="0 0 3000.000000 838.000000"
 preserveAspectRatio="xMidYMid meet">

<g transform="translate(0.000000,838.000000) scale(0.100000,-0.100000)"
fill="#ffffff" stroke="none">
<path d="M23510 7093 c-14 -2 -85 -20 -158 -38 -313 -80 -656 -316 -873 -600
-208 -273 -416 -668 -525 -1002 -126 -386 -180 -821 -155 -1251 18 -311 74
-704 136 -957 106 -427 301 -834 602 -1253 298 -416 500 -578 790 -637 67 -14
127 -16 330 -13 248 4 248 4 387 41 203 53 359 132 470 237 72 68 175 197 249
310 209 323 422 881 491 1290 35 207 39 294 22 510 -25 328 -82 521 -187 635
-77 84 -227 140 -414 156 -66 5 -144 14 -174 19 -110 20 -422 3 -601 -32 -73
-14 -134 -74 -175 -174 -29 -69 -29 -69 -33 -316 -4 -305 2 -336 83 -413 29
-27 67 -61 85 -74 85 -63 37 -140 -80 -129 -118 12 -296 139 -358 256 -116
218 -175 553 -123 703 52 153 135 271 221 314 127 64 361 135 627 190 247 50
427 99 577 155 96 36 220 179 262 300 8 22 21 82 29 133 53 324 -46 712 -265
1047 -112 171 -320 354 -511 450 -92 47 -284 109 -402 130 -102 18 -259 25
-327 13z"/>
<path d="M10014 6966 c-80 -20 -130 -55 -255 -183 -135 -138 -162 -176 -296
-423 -148 -273 -143 -261 -263 -621 -111 -334 -111 -334 -161 -624 -74 -433
-91 -637 -86 -1040 4 -446 27 -719 93 -1103 55 -326 81 -432 166 -692 89 -272
100 -296 201 -458 103 -166 140 -204 261 -262 183 -88 208 -93 387 -86 90 3
176 12 204 21 59 17 202 112 265 175 59 58 79 103 128 285 58 217 62 241 73
445 12 233 58 510 85 510 16 0 47 -104 64 -217 30 -200 193 -850 232 -926 17
-34 167 -204 289 -327 25 -26 66 -57 93 -69 57 -28 310 -81 386 -81 77 0 116
13 275 90 176 85 201 110 343 354 121 207 135 239 246 569 114 340 207 750
256 1130 29 229 29 735 0 969 -49 386 -182 973 -296 1299 -41 118 -159 359
-215 439 -41 59 -96 106 -194 164 -84 51 -153 74 -258 87 -79 10 -101 9 -157
-5 -109 -28 -267 -139 -315 -219 -33 -57 -122 -303 -145 -402 -25 -104 -86
-514 -95 -630 -3 -49 -11 -112 -16 -140 -6 -27 -14 -101 -19 -163 -10 -114
-28 -172 -55 -172 -22 0 -43 39 -50 95 -3 28 -12 93 -20 145 -8 52 -19 156
-25 230 -18 219 -37 344 -110 712 -73 370 -75 376 -171 543 -26 44 -71 125
-100 179 -69 127 -119 182 -263 285 -157 113 -203 131 -331 130 -55 0 -123 -6
-151 -13z"/>
<path d="M6305 6920 c-60 -11 -148 -32 -195 -46 -92 -28 -305 -120 -385 -167
-79 -46 -250 -173 -301 -224 -47 -48 -200 -245 -246 -319 -33 -52 -169 -297
-209 -377 -45 -88 -155 -354 -184 -445 -70 -219 -168 -713 -201 -1012 -8 -80
-19 -233 -24 -340 -5 -107 -13 -224 -19 -260 -13 -78 -13 -275 -1 -345 5 -27
12 -117 15 -200 19 -464 134 -972 282 -1244 54 -101 142 -210 205 -257 32 -23
95 -57 141 -75 73 -29 96 -33 207 -37 330 -11 500 119 648 501 82 210 136 429
202 817 39 231 97 495 116 533 50 96 142 87 177 -18 22 -62 62 -309 92 -565
48 -404 106 -681 185 -893 29 -76 129 -226 175 -261 49 -37 148 -82 224 -102
50 -12 97 -15 210 -12 126 4 157 8 226 32 138 47 217 91 294 162 92 85 144
153 216 282 174 312 286 689 333 1117 22 202 24 811 4 1010 -47 460 -137 948
-226 1218 -136 411 -400 869 -623 1077 -69 65 -287 204 -408 261 -157 73 -357
141 -500 170 -193 39 -293 43 -430 19z"/>
<path d="M19200 6920 c-204 -37 -359 -89 -550 -184 -114 -57 -312 -188 -379
-250 -58 -55 -187 -211 -249 -304 -152 -225 -341 -609 -411 -837 -104 -337
-181 -758 -228 -1240 -21 -210 -29 -814 -13 -950 43 -371 65 -516 100 -660
115 -474 271 -749 480 -847 146 -69 167 -73 360 -73 173 0 176 1 260 33 107
41 176 88 237 163 170 207 268 505 382 1166 83 476 106 543 187 543 83 0 114
-101 164 -535 29 -258 77 -590 102 -705 27 -129 83 -311 115 -373 107 -214
248 -297 503 -297 139 0 198 14 329 76 81 39 108 59 169 122 95 98 165 205
246 372 131 271 209 583 260 1045 18 160 22 597 6 703 -5 37 -14 121 -20 187
-29 359 -132 878 -240 1220 -66 209 -261 636 -380 831 -67 111 -210 303 -272
365 -92 93 -258 205 -423 284 -169 82 -237 106 -380 135 -147 30 -232 33 -355
10z"/>
<path d="M27580 6934 c-231 -43 -311 -69 -515 -170 -147 -72 -278 -157 -382
-249 -55 -48 -178 -202 -260 -325 -120 -181 -281 -499 -378 -750 -70 -179
-179 -679 -220 -1005 -45 -353 -48 -391 -52 -828 -4 -400 -2 -452 17 -605 51
-406 113 -689 197 -892 79 -192 159 -319 251 -401 52 -45 158 -99 246 -124 46
-14 87 -16 190 -13 118 4 139 8 214 37 103 41 168 91 233 184 151 214 241 499
343 1092 81 468 99 539 148 580 52 44 105 18 132 -64 17 -50 60 -314 71 -426
46 -512 127 -909 226 -1112 60 -121 119 -188 205 -231 103 -52 172 -65 319
-60 116 4 140 8 217 37 115 43 188 91 272 181 133 142 251 365 346 655 50 154
66 223 101 432 l42 248 0 435 c0 463 2 430 -59 860 -87 606 -250 1109 -520
1604 -77 140 -232 362 -319 454 -116 125 -365 282 -580 367 -154 61 -397 105
-485 89z"/>
<path d="M14140 6919 c-201 -30 -325 -127 -425 -332 -70 -145 -97 -227 -133
-417 -31 -160 -63 -429 -62 -535 0 -71 42 -357 65 -447 19 -70 143 -323 205
-416 68 -101 300 -316 512 -475 248 -186 286 -217 320 -268 32 -49 35 -79 10
-102 -30 -28 -71 -29 -197 -8 -177 29 -342 44 -453 39 -91 -3 -104 -7 -187
-46 -152 -73 -218 -124 -306 -234 -111 -139 -178 -281 -200 -419 -38 -247 89
-638 329 -1009 185 -286 570 -663 787 -769 146 -72 330 -97 640 -88 238 8 371
26 512 73 125 40 186 76 314 182 189 157 484 525 584 728 133 274 253 634 330
999 40 188 60 334 75 560 6 83 15 177 20 210 17 103 13 966 -5 1150 -44 457
-115 757 -232 988 -118 231 -240 312 -468 311 -303 -2 -464 -128 -570 -447
-42 -126 -69 -251 -124 -577 -58 -342 -97 -450 -165 -450 -14 0 -35 10 -46 22
-33 36 -51 106 -175 690 -62 294 -192 631 -308 803 -50 74 -128 153 -187 190
-64 40 -184 82 -274 94 -86 12 -107 12 -186 0z"/>
<path d="M1300 6878 c-95 -33 -218 -106 -275 -163 -48 -47 -150 -205 -208
-320 -81 -162 -232 -622 -291 -890 -89 -399 -98 -514 -94 -1175 5 -742 21
-906 142 -1460 59 -267 159 -608 232 -789 48 -121 170 -344 216 -396 45 -51
161 -127 250 -163 68 -27 171 -31 302 -13 122 17 279 116 338 211 38 62 116
329 178 610 29 129 61 251 71 271 23 47 61 62 112 44 70 -24 244 -195 459
-450 151 -180 168 -196 328 -317 157 -118 192 -133 303 -125 121 8 284 44 352
77 60 29 262 186 342 266 56 57 84 103 149 249 73 166 83 214 61 294 -22 77
-149 356 -197 430 -35 54 -143 185 -316 381 -46 52 -206 212 -356 355 -350
333 -377 362 -399 410 -24 53 -24 87 2 138 24 47 148 208 385 500 169 208 188
233 406 547 152 218 179 268 267 493 79 199 81 234 26 382 -65 177 -100 217
-271 321 -139 84 -173 93 -335 94 -154 0 -202 -10 -275 -60 -130 -89 -298
-236 -456 -400 -256 -267 -427 -410 -488 -410 -33 0 -78 33 -92 69 -5 14 -37
134 -69 266 -62 251 -126 459 -164 535 -32 64 -103 125 -193 168 -77 37 -77
37 -227 40 -134 2 -157 0 -215 -20z"/>
</g>
</svg>
