<?xml version="1.0" encoding="UTF-8"?>
<svg version="1.1" xmlns="http://www.w3.org/2000/svg" width="2720" height="839">
<path d="M1934 130 C1933.04673828 130.87205078 1933.04673828 130.87205078 1932.07421875 131.76171875 C1901.3415195 160.88076792 1895.45681927 201.13741739 1892.3125 241.3125 C1892.22136429 242.44995163 1892.22136429 242.44995163 1892.12838745 243.61038208 C1889.48932352 277.1466898 1889.80123629 310.81361008 1889.7029183 344.42741281 C1889.68174416 351.60598587 1889.6553609 358.78453735 1889.62875474 365.96309198 C1889.5814655 378.75777322 1889.53810071 391.55246447 1889.49731445 404.34716797 C1889.45775988 416.7527748 1889.41628827 429.15837286 1889.37231445 441.56396484 C1889.36959018 442.33270199 1889.36686591 443.10143913 1889.36405908 443.89347135 C1889.35037634 447.75121095 1889.33665672 451.60895042 1889.32291877 455.46668983 C1889.20956385 487.31110829 1889.10269153 519.1555453 1889 551 C1882.25 551.125 1882.25 551.125 1880 550 C1879.42320397 547.63329835 1878.98183437 545.34262482 1878.60197449 542.94177246 C1878.476138 542.1875266 1878.35030152 541.43328074 1878.22065181 540.65617895 C1877.80088206 538.10600917 1877.39802149 535.55365193 1877 533 C1876.86267967 532.11986803 1876.72535935 531.23973606 1876.5838778 530.33293343 C1875.48047975 523.20383881 1874.42364459 516.0679927 1873.3684082 508.93164062 C1873.01257945 506.53718353 1872.65654406 504.14275714 1872.30032063 501.74835873 C1871.53413329 496.59520811 1870.76935208 491.44185094 1870.00587845 486.28829765 C1868.88363523 478.71304197 1867.75879694 471.13817327 1866.63337299 463.56338956 C1864.88202794 451.77543956 1863.13229986 439.98725029 1861.38371506 428.19889054 C1858.76780452 410.56343084 1856.14751899 392.92862369 1853.52567589 375.29404509 C1845.81226894 323.41300397 1838.10175716 271.53157294 1830.45505911 219.64065015 C1829.43760471 212.73715165 1828.41840234 205.83391325 1827.39781189 198.93087769 C1827.19106426 197.53246696 1827.19106426 197.53246696 1826.98013991 196.10580552 C1826.30936915 191.56930727 1825.63834644 187.03284639 1824.96711636 182.49641609 C1823.58305062 173.13961284 1822.20564801 163.78187509 1820.83693194 154.42281395 C1819.92540736 148.19323993 1819.00681654 141.96473636 1818.08224893 135.73708481 C1817.56430426 132.2465892 1817.049657 128.75569693 1816.54441452 125.26333809 C1816.00864934 121.57131314 1815.46045528 117.88134948 1814.90893555 114.19165039 C1814.75805135 113.12973228 1814.60716715 112.06781418 1814.4517107 110.97371674 C1813.33751598 103.65259533 1811.84050703 98.07541049 1805.9375 93.1875 C1805.24527344 92.60355469 1804.55304688 92.01960938 1803.83984375 91.41796875 C1800.45818615 88.81172309 1798.24283409 88.87255937 1794.01064777 88.86577892 C1792.7256096 88.86132108 1791.44057143 88.85686324 1790.11659271 88.85227031 C1788.67703775 88.85235961 1787.23748279 88.85254948 1785.79792786 88.85282898 C1784.2791383 88.8495314 1782.76034962 88.84580606 1781.24156207 88.8416875 C1777.05241301 88.83164718 1772.86327827 88.82794745 1768.67411888 88.82529819 C1764.16204267 88.82140112 1759.64997788 88.81182234 1755.13790894 88.80308533 C1744.23316587 88.78330345 1733.32842185 88.77325229 1722.42366531 88.76435754 C1717.29166114 88.75997724 1712.159658 88.75460975 1707.02765465 88.74936867 C1689.97295375 88.73235427 1672.9182535 88.71785954 1655.86354542 88.71061993 C1651.4356416 88.70870995 1647.00773778 88.70678963 1642.57983398 88.70483398 C1641.47926431 88.70435024 1640.37869463 88.7038665 1639.24477436 88.7033681 C1621.41168514 88.69506579 1603.57866295 88.66972641 1585.745603 88.63725331 C1567.44721373 88.60420386 1549.14885854 88.58617306 1530.85043925 88.58297569 C1520.57234238 88.58080857 1510.29434324 88.57203054 1500.01627541 88.54651451 C1491.26376114 88.52483635 1482.51136835 88.51674284 1473.75883029 88.52648129 C1469.29214149 88.53103445 1464.82570345 88.529081 1460.35904884 88.50971985 C1456.26980101 88.49214753 1452.18098799 88.49303736 1448.09173592 88.50861714 C1446.61253706 88.51100228 1445.13330856 88.50662283 1443.65415511 88.49478849 C1433.95399927 88.42198845 1428.40720743 88.79312018 1421.25 95.625 C1415.93951724 102.56364161 1415.02935061 113.0286787 1413.3203125 121.3671875 C1413.07137238 122.56591492 1412.82243225 123.76464233 1412.56594849 124.99969482 C1411.88841538 128.27213504 1411.21542768 131.54543019 1410.54566956 134.81946564 C1410.12123102 136.89341651 1409.69544868 138.96708791 1409.26940918 141.04071045 C1399.98354431 186.27305489 1391.1286027 231.59606985 1383.71386719 277.17626953 C1383.54281967 278.21700119 1383.37177216 279.25773285 1383.19554138 280.33000183 C1382.88086328 282.24868804 1382.57096783 284.16816786 1382.26698303 286.08857727 C1380.56826949 296.43173051 1380.56826949 296.43173051 1378 299 C1372.62666752 299.4672463 1372.62666752 299.4672463 1370.3657074 297.78146362 C1368.66379197 295.56144166 1368.40393193 294.01204764 1368.02368164 291.24658203 C1367.88195526 290.26546951 1367.74022888 289.28435699 1367.59420776 288.27351379 C1367.45097076 287.19583237 1367.30773376 286.11815094 1367.16015625 285.0078125 C1366.99758331 283.86918259 1366.83501038 282.73055267 1366.66751099 281.55741882 C1366.31184238 279.06635127 1365.96118093 276.57456503 1365.61483765 274.08218384 C1364.66034398 267.24378177 1363.6566503 260.41269139 1362.6484375 253.58203125 C1362.49035771 252.50839482 1362.49035771 252.50839482 1362.3290844 251.41306877 C1358.49111529 225.40939064 1353.82467736 199.54008237 1349.19150448 173.66854954 C1348.23981115 168.35125248 1347.29724978 163.03238264 1346.35791016 157.71289062 C1345.14398042 150.84124542 1343.91834692 143.97180097 1342.67848873 137.10478497 C1342.02739126 133.49863753 1341.3802191 129.89191447 1340.74398804 126.28311157 C1340.04330827 122.31202357 1339.31973275 118.34544652 1338.59375 114.37890625 C1338.2881591 112.62148102 1338.2881591 112.62148102 1337.97639465 110.82855225 C1336.51790411 103.01162849 1334.68555788 97.84436558 1328.375 92.6875 C1327.78460937 92.19636719 1327.19421875 91.70523438 1326.5859375 91.19921875 C1323.84045937 89.1232045 1322.09563921 88.87348358 1318.71294117 88.86577892 C1317.80759311 88.86132108 1316.90224506 88.85686324 1315.96946222 88.85227031 C1314.96841618 88.85245467 1313.96737014 88.85263903 1312.93598938 88.85282898 C1311.87749588 88.84915229 1310.81900237 88.8454756 1309.72843331 88.8416875 C1306.1578993 88.83061574 1302.58739435 88.82680091 1299.0168457 88.82299805 C1296.46636359 88.81673603 1293.9158824 88.81008947 1291.36540222 88.80308533 C1283.69390903 88.78383127 1276.02242094 88.77325282 1268.35090974 88.76435754 C1264.73910341 88.75997582 1261.12729856 88.75460866 1257.51549339 88.74936867 C1245.51001572 88.73235438 1233.50453897 88.71786041 1221.49905109 88.71061993 C1218.38258679 88.70871 1215.26612248 88.70678967 1212.1496582 88.70483398 C1211.37506554 88.70435024 1210.60047287 88.7038665 1209.8024077 88.7033681 C1197.25569029 88.69506858 1184.70906825 88.66973389 1172.16239247 88.63725331 C1159.2835421 88.60418444 1146.40474019 88.58617127 1133.52584714 88.58297569 C1126.29381124 88.58081028 1119.06191435 88.5720575 1111.82991982 88.54651451 C1105.02637898 88.52254053 1098.22313164 88.51898075 1091.41954231 88.52927589 C1088.92139607 88.52977257 1086.4232377 88.52341357 1083.92512894 88.50971985 C1080.51609358 88.49207742 1077.10796419 88.49907036 1073.69892883 88.51225281 C1072.70903641 88.50128356 1071.71914398 88.49031432 1070.69925481 88.47901267 C1064.59124133 88.53608253 1060.9987621 89.42731503 1056 93 C1052.41336751 96.86978768 1050.87722776 99.82819559 1050.86971474 105.09052181 C1050.86609039 105.92655971 1050.86246604 106.7625976 1050.85873187 107.62396997 C1050.85980012 108.54243961 1050.86086837 109.46090925 1050.86196899 110.4072113 C1050.85914771 111.38292133 1050.85632643 112.35863135 1050.85341966 113.36390835 C1050.84505653 116.64813109 1050.84373396 119.9323202 1050.84228516 123.21655273 C1050.83761829 125.565156 1050.83247493 127.91375836 1050.82688904 130.26235962 C1050.81559837 135.32715711 1050.80716895 140.39194869 1050.80076981 145.45675468 C1050.79010688 153.46029021 1050.76988525 161.46378983 1050.74765015 169.46730042 C1050.74017046 172.204913 1050.73275674 174.94252577 1050.72536278 177.68013859 C1050.72351221 178.36429585 1050.72166165 179.0484531 1050.719755 179.7533424 C1050.6988267 187.54169363 1050.67999838 195.33004944 1050.66210938 203.1184082 C1050.66047119 203.83041939 1050.65883301 204.54243057 1050.65714519 205.27601785 C1050.63084977 216.81910102 1050.6122118 228.3621874 1050.59551747 239.90528785 C1050.57810634 251.75248987 1050.5492726 263.59962897 1050.5106281 275.44678074 C1050.48931435 282.10018067 1050.47409486 288.75351239 1050.47182083 295.40695 C1050.46968037 301.66221618 1050.4538727 307.91729519 1050.42743111 314.17250443 C1050.4202141 316.4719356 1050.41814869 318.77138939 1050.42153358 321.07082939 C1050.42540842 324.20271183 1050.41103799 327.33399056 1050.39199829 330.46580505 C1050.40029283 331.84016343 1050.40029283 331.84016343 1050.40875494 333.24228662 C1050.3436932 339.41476625 1050.3436932 339.41476625 1048.47550011 342.59588718 C1047.98858507 343.05924441 1047.50167004 343.52260164 1047 344 C1044.69 343.67 1042.38 343.34 1040 343 C1025.98238293 301.23081788 1012.21687835 259.37410528 998.84298706 217.39425659 C993.39360259 200.29002192 987.84332641 183.22044626 982.23736572 166.16690063 C978.48138928 154.74065158 974.75864326 143.3073176 971.1796875 131.82421875 C970.73017982 130.38613106 970.73017982 130.38613106 970.27159119 128.91899109 C968.87126038 124.43600821 967.48084453 119.95041284 966.10864258 115.45874023 C965.61835889 113.88123648 965.12773812 112.30383742 964.63671875 110.7265625 C964.42703461 110.02597214 964.21735046 109.32538177 964.00131226 108.6035614 C962.01420484 102.28201213 958.96796846 97.48132953 953.9375 93.1875 C952.93009766 92.31158203 952.93009766 92.31158203 951.90234375 91.41796875 C948.75172405 89.06956023 946.04504277 88.87191521 942.24456787 88.85282898 C941.26610397 88.84567368 940.28764008 88.83851837 939.27952576 88.83114624 C937.67114586 88.82711288 937.67114586 88.82711288 936.03027344 88.82299805 C934.89991165 88.81642685 933.76954987 88.80985565 932.60493469 88.80308533 C928.85641415 88.78334098 925.10793369 88.77168736 921.359375 88.76171875 C920.08005348 88.75764322 918.80073196 88.7535677 917.48264313 88.74936867 C911.41018603 88.73065534 905.33774904 88.71609052 899.26526904 88.7077567 C892.26454363 88.6979894 885.26413484 88.6716814 878.26352096 88.63125581 C872.19320609 88.59740998 866.12302392 88.58560783 860.05261993 88.58155251 C857.47383731 88.57667917 854.89505824 88.56504409 852.31633759 88.54651451 C848.7064032 88.52218678 845.09729583 88.52307702 841.48730469 88.5300293 C839.89107018 88.51081421 839.89107018 88.51081421 838.2625885 88.49121094 C831.94362172 88.5355434 828.1481155 89.25675185 823 93 C818.27063426 98.10273671 817.85282516 102.12462355 817.86692142 108.84427738 C817.86355689 110.06166738 817.86355689 110.06166738 817.86012438 111.30365112 C817.85376461 114.04644685 817.85454964 116.78919531 817.85523987 119.53199768 C817.8521077 121.50894156 817.84853326 123.48588479 817.84455246 125.46282715 C817.83483041 130.91354274 817.83130008 136.36424785 817.82870948 141.81497085 C817.82482287 147.68618199 817.81518537 153.5573838 817.80615234 159.42858887 C817.79119868 169.60735955 817.77966108 179.78612949 817.77020454 189.96490669 C817.75571301 205.36191162 817.73304385 220.75890033 817.70853943 236.15589214 C817.69874846 242.33100624 817.68922799 248.50612078 817.67970943 254.68123531 C817.67812129 255.71034733 817.67812129 255.71034733 817.67650105 256.76024948 C817.65134269 273.09594153 817.62884937 289.43163697 817.60717773 305.76733398 C817.6062273 306.48225346 817.60527686 307.19717293 817.60429762 307.93375663 C817.58213761 324.61961366 817.56126073 341.30547168 817.54260254 357.99133301 C817.54179879 358.70928757 817.54099504 359.42724213 817.54016693 360.16695289 C817.53611609 363.78727738 817.53207453 367.40760188 817.52803367 371.02792638 C817.52723468 371.74344132 817.52643569 372.45895626 817.52561248 373.19615347 C817.52400016 374.6403592 817.52238934 376.08456494 817.52078002 377.52877067 C817.49417506 401.36653878 817.46082545 425.20429001 817.42000187 449.04203813 C817.4142515 452.40531855 817.40859295 455.76859912 817.40299797 459.13187981 C817.40134526 460.12481191 817.40134526 460.12481191 817.39965917 461.13780324 C817.38103911 472.47018306 817.37112307 483.80255276 817.363384 495.13494372 C817.35601441 505.19226619 817.3415209 515.249562 817.32131977 525.30686683 C817.30988564 531.11763532 817.30179696 536.92836071 817.30232811 542.73914146 C817.30275327 548.05049765 817.29413165 553.3617566 817.27807831 558.67308783 C817.27389575 560.60235708 817.27314867 562.53163722 817.27604241 564.46090884 C817.27947484 567.06791193 817.27081467 569.67459245 817.25891972 572.28156376 C817.26285525 573.04393366 817.26679077 573.80630355 817.27084556 574.59177557 C817.22828716 579.77171284 817.22828716 579.77171284 815 582 C812.31160615 582.26991906 809.70858064 582.08737357 807 582 C802.98518839 555.27636301 798.9909735 528.54971414 795.0136776 501.82046914 C794.24823601 496.67649582 793.48262346 491.53254794 792.71704102 486.38859558 C791.73354 479.78037162 790.75007585 473.17214218 789.76672935 466.56389523 C787.69083991 452.61396457 785.61357029 438.6642401 783.53536701 424.71465397 C781.72088297 412.53512082 779.90711533 400.35548101 778.09375 388.17578125 C777.91021524 386.94306984 777.72668048 385.71035842 777.53758407 384.44029212 C772.13306118 348.13837036 766.75448422 311.83267518 761.39698428 275.52378988 C760.05480512 266.42842946 758.71103932 257.33330459 757.36616516 248.23834229 C757.17876442 246.97098378 756.99136367 245.70362527 756.79828411 244.39786196 C756.04812192 239.32493681 755.29789719 234.25202092 754.54746115 229.17913628 C752.34715772 214.30519062 750.15217078 199.43048482 747.96616805 184.55443043 C746.59530245 175.22862011 745.21809128 165.9037609 743.83593023 156.57961804 C743.03750627 151.19181262 742.24208613 145.80360658 741.45449829 140.41420555 C740.73261557 135.47464387 740.00258933 130.53635723 739.26608336 125.59895539 C739.00097014 123.81170021 738.73887207 122.02399462 738.48009527 120.235811 C738.12768557 117.80365752 737.76432086 115.3733802 737.39823914 112.94325256 C737.25149348 111.90254987 737.25149348 111.90254987 737.10178328 110.84082288 C736.06112217 104.08770928 734.51038133 97.49793952 729 93.0625 C728.319375 92.49660156 727.63875 91.93070313 726.9375 91.34765625 C722.70540423 88.4039606 718.26593889 88.85174919 713.32756042 88.85282898 C711.98249333 88.84731395 711.98249333 88.84731395 710.61025316 88.8416875 C707.59327176 88.83063854 704.57632479 88.82680478 701.55932617 88.82299805 C699.40115753 88.81673439 697.24298998 88.81008768 695.08482361 88.80308533 C689.21288859 88.78566843 683.34096171 88.77512202 677.46900725 88.7668798 C673.80232269 88.76173188 670.13564067 88.75565611 666.4689579 88.74936867 C655.00214889 88.73031603 643.53534634 88.71608415 632.06852454 88.7077567 C618.82163047 88.69797821 605.57490322 88.67164291 592.32806796 88.63125581 C582.09530054 88.60112584 571.86258103 88.58629085 561.6297701 88.58297569 C555.51503403 88.58062196 549.40047617 88.5716193 543.28578758 88.54651451 C537.53446573 88.52328297 531.78344007 88.51898084 526.03208351 88.52927589 C523.92052858 88.52977253 521.80895931 88.52341452 519.69744873 88.50971985 C516.81573885 88.49207465 513.93510043 88.4990709 511.0533905 88.51225281 C510.21690529 88.50128356 509.38042007 88.49031432 508.51858681 88.47901267 C503.20166584 88.53777283 500.23478536 89.50756653 496 93 C490.82603533 98.40914488 489.06028848 103.3935644 488.09695816 110.70944214 C487.87098178 112.39213605 487.87098178 112.39213605 487.64044023 114.10882378 C487.48228892 115.33216486 487.32413762 116.55550594 487.16119385 117.81591797 C486.98591238 119.13828703 486.81010901 120.460587 486.63383079 121.78282356 C486.15101751 125.41584423 485.67560605 129.04980085 485.20139027 132.68395233 C484.68723852 136.61400752 484.16621237 140.54315189 483.64602661 144.47241211 C482.74079849 151.31734449 481.83993791 158.16284047 480.9419632 165.00872803 C479.61991501 175.08742243 478.29102349 185.16520588 476.96060297 195.24279809 C474.77056088 211.83313508 472.58576175 228.42415817 470.40429688 245.015625 C467.58743154 266.43959045 464.76523884 287.86285051 461.94083881 309.28582382 C460.8075653 317.88169608 459.67456505 326.47760435 458.54153711 335.07350898 C458.16358807 337.94086335 457.78563033 340.80821658 457.4076705 343.67556953 C455.39139551 358.97191682 453.37548841 374.26831257 451.35977221 389.56473351 C451.10732828 391.48042173 450.85488417 393.39610992 450.60243988 395.3117981 C450.47744288 396.26034601 450.35244588 397.20889393 450.22366109 398.18618572 C449.34168692 404.87900998 448.45958356 411.57181721 447.57743073 418.26461792 C447.07252636 422.09535609 446.56763177 425.92609556 446.06274414 429.75683594 C445.93756769 430.70658208 445.81239123 431.65632823 445.68342155 432.63485456 C443.8608387 446.46365239 442.03984222 460.29265849 440.21960959 474.12176585 C437.75699576 492.83114295 435.29116915 511.5400925 432.82035327 530.24838829 C431.48057431 540.39360747 430.14348005 550.5391724 428.81009859 560.68523443 C427.91029485 567.53011675 427.00711095 574.37454759 426.10121042 581.21862566 C425.58108707 585.14891617 425.06246203 589.07938897 424.54788876 593.01041031 C424.0773152 596.60504224 423.60245011 600.19908042 423.12419483 603.79269814 C422.87150404 605.69986028 422.62337305 607.60762487 422.37542558 609.51540947 C420.19537706 625.80462294 420.19537706 625.80462294 417 629 C411.74295165 629.55926046 411.74295165 629.55926046 409.42280579 627.8127594 C407.62600794 625.52350656 406.99368276 623.47685708 406.17260742 620.68334961 C405.84253189 619.5780188 405.51245636 618.47268799 405.17237854 617.3338623 C404.82029831 616.11896118 404.46821808 614.90406006 404.10546875 613.65234375 C403.72306043 612.35891791 403.33977232 611.0657519 402.95567322 609.77282715 C402.12683566 606.97606922 401.30415081 604.17760006 400.48614502 601.37765503 C399.16866176 596.86818847 397.83795637 592.36268917 396.50537109 587.85766602 C394.85943496 582.2898468 393.21690783 576.72104252 391.57866669 571.15095425 C388.590421 560.99095458 385.5807013 550.8374749 382.55859375 540.6875 C382.33508743 539.93676208 382.11158112 539.18602417 381.88130188 538.41253662 C380.97633404 535.37294562 380.07130016 532.33337431 379.16609573 529.29385376 C377.57179556 523.93998206 375.97977276 518.58543711 374.38916016 513.23046875 C374.16216053 512.46625107 373.9351609 511.70203339 373.7012825 510.91465759 C373.24113103 509.36546 372.78098573 507.81626057 372.32084656 506.26705933 C368.46138186 493.27337781 364.59515667 480.28173033 360.72254944 467.29195976 C359.22504279 462.26810724 357.72863391 457.2439276 356.23224258 452.21974277 C355.04632399 448.23836137 353.85968462 444.25719813 352.67120361 440.27658081 C350.33408262 432.4475974 348.00466298 424.61650736 345.70168686 416.77740192 C344.77187711 413.6132981 343.83558817 410.45138558 342.88885498 407.29229736 C341.86907509 403.88757749 340.86783533 400.47792963 339.87109375 397.06640625 C339.57574234 396.09622055 339.28039093 395.12603485 338.97608948 394.12644958 C335.1632697 380.8699126 337.83339836 370.71302201 342 358 C342.41995279 356.68729746 342.83901179 355.37430857 343.25708008 354.06100464 C344.53142206 350.08297614 345.84251971 346.11750309 347.15625 342.15234375 C347.65213084 340.64869966 348.14776379 339.14497379 348.64317322 337.64117432 C349.70338539 334.42467376 350.76528881 331.20873871 351.82858276 327.99325562 C353.54345046 322.80734694 355.25448885 317.62017934 356.96508789 312.43286133 C359.39991532 305.0504642 361.83640656 297.66861813 364.27392578 290.28710938 C367.92522378 279.22928916 371.57086103 268.16960775 375.21484375 257.109375 C375.512288 256.20659254 375.80973225 255.30381008 376.11618996 254.37367058 C377.32017204 250.7194122 378.5241409 247.06514947 379.72806644 243.41087246 C381.83427817 237.01798378 383.94103174 230.62527385 386.0480957 224.23266602 C392.28996515 205.29531991 398.52979327 186.35730396 404.765625 167.41796875 C405.08096254 166.46023497 405.39630009 165.50250118 405.72119331 164.51574516 C408.76195498 155.2803172 411.80246079 146.04480504 414.84263039 136.80918217 C415.94339409 133.4652616 417.04423572 130.1213667 418.1450882 126.77747536 C418.89586392 124.49683557 419.64651316 122.21615418 420.39715576 119.93547058 C420.84964367 118.56098219 421.3021376 117.18649578 421.75463867 115.81201172 C422.14237961 114.63404022 422.53012054 113.45606873 422.92961121 112.24240112 C423.64550446 110.07383105 424.38261776 107.91215585 425.14033508 105.75784302 C426.23433961 102.24822819 426.1441456 100.50394589 425 97 C422.45339108 93.29445528 420.32996577 90.44332192 416 89 C414.22934884 88.90131641 412.45522042 88.86072115 410.68183899 88.85282898 C409.02699242 88.84209602 409.02699242 88.84209602 407.3387146 88.83114624 C406.1277713 88.82845734 404.916828 88.82576843 403.66918945 88.82299805 C402.3941304 88.81642685 401.11907135 88.80985565 399.80537415 88.80308533 C395.57468928 88.78206038 391.34400413 88.77168291 387.11328125 88.76171875 C385.65513782 88.7576703 384.19699459 88.75355335 382.73885155 88.74936867 C375.88631454 88.7303187 369.03378828 88.7160885 362.18122989 88.7077567 C354.28061261 88.69799122 346.38027602 88.67168919 338.47975761 88.63125581 C332.36751838 88.60105218 326.25535941 88.58628373 320.14304703 88.58297569 C316.49524011 88.58062959 312.84773311 88.57172748 309.20000648 88.54651451 C305.12575376 88.51880863 301.05212427 88.52307783 296.9777832 88.5300293 C295.17654999 88.51081421 295.17654999 88.51081421 293.33892822 88.49121094 C285.58326176 88.5394097 279.98913839 89.52692168 274.0534668 94.69471741 C269.7557173 100.55888938 267.80350824 106.7427211 265.8125 113.68359375 C265.23396638 115.62215616 264.65543052 117.56071789 264.07681274 119.49925518 C263.46181407 121.57119544 262.85501628 123.64538005 262.25048828 125.72039795 C260.99715642 130.02000544 259.71750699 134.31149219 258.43359375 138.60205078 C255.85333708 147.23680476 253.30033205 155.87950387 250.74973297 164.52305603 C249.46759243 168.86583432 248.18277429 173.20782 246.89794922 177.54980469 C246.63551107 178.43671808 246.37307293 179.32363148 246.10268211 180.23742104 C245.56603614 182.05098552 245.02937871 183.86454661 244.49271011 185.6781044 C243.67604338 188.43809685 242.85958707 191.19815147 242.04318237 193.95822144 C236.58638067 212.40528065 231.11933962 230.84929406 225.63888931 249.28934193 C224.24640288 253.97466522 222.854759 258.66023448 221.46533203 263.34646606 C220.16184267 267.74281295 218.85614077 272.13849643 217.54870224 276.53367043 C217.06858863 278.14903724 216.58927327 279.76464155 216.11081314 281.38049889 C215.45643812 283.58993636 214.79914438 285.79848506 214.14111328 288.00683594 C213.77382111 289.24367126 213.40652893 290.48050659 213.02810669 291.75482178 C212.13624437 294.56995001 211.14258769 297.278771 210 300 C203.57360526 301.33378004 203.57360526 301.33378004 201.29276943 300.00656509 C199.30199013 296.91658774 199.59238952 293.76566912 199.62818909 290.2074585 C199.62436452 289.40537437 199.62053996 288.60329024 199.6165995 287.77690053 C199.60728821 285.07993298 199.61932238 282.38347527 199.63110352 279.68652344 C199.62863648 277.75657436 199.62479905 275.82662663 199.61968994 273.89668274 C199.61133964 269.73546649 199.61217005 265.57438702 199.61987495 261.41316986 C199.63143777 254.83277532 199.61931163 248.25255748 199.60325623 241.67218018 C199.56702485 225.32396517 199.56083132 208.97575393 199.56335449 192.62750244 C199.56506533 179.93030714 199.55794835 167.23325566 199.52337593 154.53610063 C199.50657368 147.99563982 199.50838438 141.4555295 199.52419865 134.91507006 C199.52999621 130.84263407 199.51925392 126.77036417 199.50395203 122.69795799 C199.50022598 120.81097938 199.50333332 118.92397287 199.51382256 117.03701973 C199.52720327 114.45775242 199.51597571 111.87969506 199.49879456 109.30047607 C199.50860133 108.55639551 199.51840811 107.81231494 199.52851206 107.04568648 C199.4524085 101.5083712 198.03844058 98.46658588 195 94 C190.50312519 89.83216481 187.2922094 88.87756268 181.25750732 88.85282898 C180.06027542 88.84567368 178.86304352 88.83851837 177.62953186 88.83114624 C176.31415939 88.82845734 174.99878693 88.82576843 173.64355469 88.82299805 C172.24561901 88.81673218 170.847685 88.81008527 169.44975281 88.80308533 C164.85713864 88.78205652 160.26452419 88.77168379 155.671875 88.76171875 C154.08988681 88.7576707 152.50789879 88.75355376 150.92591095 88.74936867 C143.49298732 88.73031928 136.06007361 88.71608794 128.62713027 88.7077567 C120.05185701 88.69798597 111.476842 88.67166987 102.90165973 88.63125581 C96.27054462 88.60107826 89.63950348 88.58628626 83.00832105 88.58297569 C79.04924131 88.58062698 75.09043755 88.57169023 71.13143158 88.54651451 C67.40491343 88.52319996 63.67885228 88.51901385 59.95228004 88.52927589 C57.93900764 88.53000574 55.92575828 88.51093815 53.9125824 88.49121094 C47.0620838 88.53057227 42.51211172 88.77713019 37 93 C33.32011309 96.9704043 31.87635353 99.95753851 31.87119883 105.33999896 C31.86792664 106.23366593 31.86465445 107.1273329 31.86128309 108.04808068 C31.86276672 109.03289288 31.86425034 110.01770508 31.86577892 111.03236008 C31.86342669 112.08051612 31.86107446 113.12867216 31.85865095 114.20859051 C31.85194078 117.75615632 31.85241978 121.30368568 31.85282898 124.85125732 C31.84953162 127.40623444 31.84580633 129.96121103 31.8416875 132.51618695 C31.83235026 138.82437702 31.82843757 145.13256006 31.82616853 151.44075618 C31.82320941 158.99366225 31.81451376 166.54655897 31.80575425 174.09946015 C31.78489774 192.35616443 31.77443847 210.61287034 31.76562465 228.86958375 C31.76142017 237.50304975 31.75619794 246.13651506 31.75094012 254.76998047 C31.73304958 284.31251686 31.71805239 313.85505345 31.71061993 343.39759445 C31.71014517 345.25269817 31.70966928 347.10780188 31.70919226 348.9629056 C31.70895589 349.88288603 31.70871951 350.80286646 31.70847597 351.75072509 C31.70727475 356.41194173 31.70605931 361.07315837 31.70483398 365.734375 C31.70459383 366.6594135 31.70435368 367.58445199 31.70410626 368.53752196 C31.69621067 398.53968512 31.67277366 428.54180879 31.64027804 458.5439547 C31.60599916 490.250291 31.58627063 521.95660419 31.58297569 553.66295934 C31.58255813 557.14191644 31.58207857 560.62087354 31.58155251 564.09983063 C31.58142931 564.95647246 31.58130612 565.8131143 31.5811792 566.69571498 C31.57884483 580.49570152 31.5631718 594.29564227 31.54271066 608.09561247 C31.52247945 621.96018952 31.51696253 635.82471143 31.52648129 649.68930051 C31.5317067 657.93073607 31.52576992 666.17198835 31.50394662 674.41339762 C31.48889586 680.56067231 31.49464632 686.70776 31.50861714 692.85503355 C31.51101028 695.34697968 31.50658226 697.83894324 31.49478849 700.33086261 C31.47978587 703.70898541 31.4892623 707.08617657 31.50501537 710.46427536 C31.49479317 711.4397229 31.48457096 712.41517043 31.47403899 713.42017698 C31.53604477 719.48086178 32.46437454 723.03510138 36 728 C40.49687481 732.16783519 43.7077906 733.12243732 49.74249268 733.14717102 C50.93972458 733.15432632 52.13695648 733.16148163 53.37046814 733.16885376 C54.68584061 733.17154266 56.00121307 733.17423157 57.35644531 733.17700195 C58.75438099 733.18326782 60.152315 733.18991473 61.55024719 733.19691467 C66.14286136 733.21794348 70.73547581 733.22831621 75.328125 733.23828125 C76.91011319 733.2423293 78.49210121 733.24644624 80.07408905 733.25063133 C87.50701268 733.26968072 94.93992639 733.28391206 102.37286973 733.2922433 C110.94814299 733.30201403 119.523158 733.32833013 128.09834027 733.36874419 C134.72945538 733.39892174 141.36049652 733.41371374 147.99167895 733.41702431 C151.95075869 733.41937302 155.90956245 733.42830977 159.86856842 733.45348549 C163.59508657 733.47680004 167.32114772 733.48098615 171.04771996 733.47072411 C173.06099236 733.46999426 175.07424172 733.48906185 177.0874176 733.50878906 C183.9379162 733.46942773 188.48788828 733.22286981 194 729 C198.9013305 723.71172235 199.14702749 719.45156093 199.13803101 712.49719238 C199.14085229 711.61878205 199.14367357 710.74037171 199.14658034 709.83534288 C199.15493939 706.88045412 199.15626569 703.92560276 199.15771484 700.97070312 C199.16238198 698.85692743 199.16752538 696.74315274 199.17311096 694.62937927 C199.18439923 690.07204787 199.19282978 685.51472304 199.19923019 680.9573822 C199.20989444 673.75643463 199.2301338 666.5555343 199.25234985 659.35461426 C199.31433123 638.87624263 199.36833684 618.39787388 199.40136719 597.91943359 C199.41968286 586.61368991 199.44857794 575.30802538 199.4893719 564.00233984 C199.51048894 558.01574559 199.52590584 552.02925127 199.52817917 546.0426178 C199.53031863 540.41523908 199.54611585 534.78806862 199.57256889 529.16075325 C199.57978955 527.09149891 199.58184957 525.02221942 199.57846642 522.95295525 C199.5745953 520.1359898 199.58894925 517.31969733 199.60800171 514.50280762 C199.60247201 513.67703862 199.59694232 512.85126962 199.59124506 512.00047731 C199.65621645 506.46566051 199.65621645 506.46566051 201.29340422 504.24806261 C203 503 203 503 206.6875 503.3125 C207.780625 503.539375 208.87375 503.76625 210 504 C213.58701382 516.61721883 216.86518682 529.28628075 219.96484375 542.03125 C220.43569378 543.95809307 220.90679595 545.88487453 221.37812805 547.81159973 C222.38030523 551.91059371 223.3807341 556.01000876 224.37976074 560.10977173 C225.95731236 566.58332766 227.53944512 573.05575905 229.12207031 579.52807617 C233.7582146 598.49308019 238.38371601 617.46067041 242.99887562 636.43079185 C245.02589741 644.7626445 247.05507912 653.09396923 249.0856123 661.42496681 C250.51361352 667.28511446 251.93786289 673.14615731 253.35920238 679.00792408 C254.24303417 682.64954778 255.13011309 686.29037502 256.01802635 689.93100548 C256.4245281 691.60067996 256.82969044 693.27068127 257.23333168 694.94104958 C260.94665902 715.82135625 260.94665902 715.82135625 273.4175806 731.56121922 C278.36788633 733.54937414 282.78919877 733.4181217 288.07652283 733.38768005 C289.75514423 733.39575836 289.75514423 733.39575836 291.46767718 733.40399987 C295.21936718 733.41831293 298.97070603 733.41116722 302.72241211 733.40405273 C305.41142393 733.40975453 308.1004105 733.41661734 310.78941345 733.42485046 C317.33622974 733.44203968 323.88295005 733.44287825 330.42978304 733.43763756 C335.75138649 733.43359491 341.07296158 733.43504054 346.39456367 733.44038582 C347.15217865 733.44113424 347.90979363 733.44188266 348.69036664 733.44265376 C350.22949533 733.44418525 351.76862401 733.4457236 353.30775268 733.44726873 C367.73879208 733.46099417 382.16977726 733.45555574 396.60081542 733.44408352 C409.80040597 733.43415067 422.99985635 733.44709258 436.19942527 733.47101771 C449.75642239 733.49540537 463.31335422 733.50501743 476.87037283 733.49836498 C484.48015612 733.49487207 492.08983161 733.49710958 499.69959831 733.51461601 C506.1774921 733.52933383 512.65520217 733.52997903 519.13309234 733.5125451 C522.43734473 733.50402914 525.74120111 733.50406559 529.0454483 733.51719666 C532.62944118 733.53035292 536.21253943 733.51890516 539.79649353 733.50120544 C541.35894937 733.51561295 541.35894937 733.51561295 542.95296997 733.53031152 C550.78384664 733.45064376 554.99884681 731.80107631 560.8125 726.375 C566.96127058 718.23095929 566.10811288 704.20004394 567.19897461 694.33959961 C567.41079679 692.45389422 567.62298016 690.56822938 567.835495 688.68260193 C568.41004103 683.57363325 568.97896151 678.46405329 569.54643321 673.35429454 C570.02427702 669.05537052 570.50463299 664.75672855 570.984891 660.45807368 C572.12258824 650.27353502 573.25544977 640.08846612 574.38549805 629.90307617 C575.53918919 619.50549855 576.70170149 609.10893464 577.86864847 598.71283716 C578.87818685 589.71566609 579.88152769 580.717817 580.88035017 571.71945006 C581.47327129 566.37859062 582.06833968 561.03799668 582.66963005 555.69807243 C585.48424666 530.67734697 587.85103548 505.68661302 589.532359 480.56352228 C590.37796656 468.180905 591.68613538 455.84034622 593 443.5 C593.14345256 442.13555687 593.28672844 440.77109515 593.42984009 439.40661621 C597.43545453 401.31212495 602.24165837 363.30520747 607.08129692 325.30912781 C607.69040513 320.50706471 608.27857754 315.70307275 608.84587765 310.8958931 C609.19113865 307.9778383 609.54519815 305.06088724 609.9004612 302.14403534 C610.13714465 300.17095249 610.36109933 298.1963557 610.5846405 296.22174072 C610.72791275 295.05511902 610.871185 293.88849731 611.01879883 292.68652344 C611.19588127 291.17321442 611.19588127 291.17321442 611.37654114 289.6293335 C612.06936255 286.70747504 612.90669441 285.14203815 615 283 C618.0625 282.625 618.0625 282.625 621 283 C623.34018178 285.34018178 623.34137175 286.06339647 623.69926453 289.25904846 C623.85881858 290.62903315 623.85881858 290.62903315 624.02159595 292.0266943 C624.18625874 293.56144327 624.18625874 293.56144327 624.35424805 295.12719727 C624.54128689 296.77593385 624.54128689 296.77593385 624.7321043 298.45797825 C625.08715379 301.61419186 625.43346255 304.77122293 625.77525282 307.92889643 C626.0048744 310.04491882 626.23714179 312.1606359 626.47015762 314.27628708 C627.67413934 325.21351164 628.851398 336.1535479 630.02411127 347.09416294 C630.55464355 352.0402169 631.08701709 356.98607269 631.61923218 361.9319458 C632.41986985 369.37356506 633.21998936 376.8152397 634.01948953 384.25698125 C635.58872388 398.86285563 637.16233917 413.46825528 638.73754883 428.07348633 C638.9863998 430.38098994 639.23524998 432.68849364 639.48409939 434.99599743 C639.98751509 439.66390173 640.49095292 444.33180365 640.99440193 448.99970436 C642.28336495 460.95094103 643.57209156 472.90220316 644.86035156 484.85351562 C644.98945518 486.05120689 645.11855879 487.24889816 645.25157464 488.4828831 C647.34931647 507.94540967 649.4408392 527.40860032 651.53038609 546.8720082 C653.68032408 566.89632969 655.83788561 586.9198197 658.00229549 606.94258213 C659.33504108 619.27412676 660.66169666 631.60629559 661.98051047 643.93933809 C662.88337303 652.3773832 663.79355036 660.81461899 664.70950627 669.25125277 C665.23751682 674.11670305 665.76225446 678.98244828 666.2782402 683.84918976 C666.7507741 688.30544542 667.23256796 692.76059969 667.72168195 697.21506512 C667.89675137 698.82445329 668.06844492 700.43421312 668.2363745 702.04436195 C669.19089733 715.54468312 669.19089733 715.54468312 674.97265625 727.375 C675.66230469 727.91125 676.35195313 728.4475 677.0625 729 C677.75472656 729.556875 678.44695313 730.11375 679.16015625 730.6875 C682.07644321 732.76790853 683.78142252 733.12622711 687.31829357 733.13422108 C688.23060842 733.13867892 689.14292326 733.14313676 690.08288401 733.14772969 C691.09171195 733.14754533 692.10053988 733.14736097 693.13993835 733.14717102 C694.73992927 733.15268605 694.73992927 733.15268605 696.37224323 733.1583125 C699.97041627 733.16938448 703.56856048 733.17319913 707.16674805 733.17700195 C709.73693433 733.18326395 712.30711971 733.18991051 714.87730408 733.19691467 C722.6081205 733.21668988 730.33893825 733.2267472 738.06977364 733.23564246 C741.70947351 733.24002414 745.34917191 733.24539131 748.98887062 733.25063133 C761.0869946 733.26764562 773.18511766 733.28213962 785.28325176 733.28938007 C788.42377918 733.29129001 791.56430659 733.29321033 794.70483398 733.29516602 C795.48540788 733.29564976 796.26598177 733.2961335 797.07020942 733.2966319 C809.71392438 733.3049315 822.3575447 733.3302663 835.00121834 733.36274669 C847.97950979 733.39581506 860.95775315 733.41382868 873.93608695 733.41702431 C881.22401374 733.41918976 888.51180259 733.4279432 895.79968834 733.45348549 C902.65575011 733.4774586 909.51155979 733.48101953 916.3676548 733.47072411 C918.88515167 733.47022741 921.40266056 733.47658696 923.92012024 733.49028015 C927.35542769 733.50792128 930.789836 733.50093026 934.22514343 733.48774719 C935.72165492 733.50420106 935.72165492 733.50420106 937.24839896 733.52098733 C943.37627587 733.46416294 946.98705455 732.58853702 952 729 C955.59355928 725.12273867 957.12279668 722.16225693 957.13028526 716.8910675 C957.13390961 716.05092952 957.13753396 715.21079153 957.14126813 714.34519482 C957.14019988 713.42215211 957.13913163 712.4991094 957.13803101 711.5480957 C957.14085229 710.56759656 957.14367357 709.58709742 957.14658034 708.57688618 C957.15494358 705.27650996 957.15626605 701.97616721 957.15771484 698.67578125 C957.16238168 696.31570338 957.16752502 693.95562641 957.17311096 691.59555054 C957.18440144 686.50619592 957.19283092 681.4168472 957.19923019 676.32748413 C957.20989192 668.28641655 957.23011285 660.24538806 957.25234985 652.2043457 C957.25982949 649.45414747 957.2672432 646.70394907 957.27463722 643.95375061 C957.27648779 643.26645675 957.27833835 642.5791629 957.280245 641.87104195 C957.30117292 634.04717001 957.32000178 626.2232935 957.33789062 618.39941406 C957.33952881 617.68414995 957.34116699 616.96888584 957.34285481 616.23194706 C957.36915658 604.63322283 957.38779115 593.0344954 957.40448253 581.43575394 C957.42188816 569.53318629 957.45071549 557.63068131 957.4893719 545.72816372 C957.5106942 539.04293795 957.52590632 532.35777825 957.52817917 525.67251587 C957.53031814 519.38852591 957.54611033 513.10472254 957.57256889 506.82078934 C957.57979148 504.50965019 957.58184865 502.1984885 957.57846642 499.88734055 C957.57459734 496.7419713 957.58894299 493.59720562 957.60800171 490.4519043 C957.59970717 489.06734024 957.59970717 489.06734024 957.59124506 487.65480518 C957.6000849 486.8146672 957.60892474 485.97452921 957.61803246 485.1089325 C957.61938898 484.38263484 957.62074551 483.65633718 957.62214315 482.90803051 C958.11615365 480.41346915 958.99105168 479.52125611 961 478 C964.0625 477.6875 964.0625 477.6875 967 478 C969.32965574 480.32965574 969.70112828 481.78820035 970.62207031 484.92773438 C970.93220566 485.97309357 971.242341 487.01845276 971.56187439 488.0954895 C972.06491844 489.82712845 972.06491844 489.82712845 972.578125 491.59375 C973.12916258 493.4606251 973.68020079 495.32750002 974.23126125 497.19436836 C974.82692145 499.21698363 975.41936062 501.24051766 976.01089478 503.26434326 C977.26860216 507.56698089 978.53527458 511.86694674 979.8034668 516.16650391 C981.14909308 520.73003532 982.49413677 525.29373423 983.83622742 529.85830688 C986.99957291 540.61651067 990.18142695 551.36908045 993.37890625 562.1171875 C993.60154144 562.8655657 993.82417664 563.6139439 994.05355835 564.38500023 C995.18434059 568.18562298 996.31549659 571.98613436 997.44683838 575.78659058 C999.51399934 582.73112453 1001.5784383 589.67646788 1003.64321899 596.62170982 C1004.80872604 600.54195393 1005.9744356 604.46213782 1007.14013672 608.38232422 C1007.61285439 609.97206613 1008.08557167 611.56180816 1008.55828857 613.15155029 C1008.79479881 613.94692955 1009.03130905 614.74230881 1009.27498627 615.56179047 C1012.75597575 627.26830216 1016.23689859 638.97483366 1019.71754932 650.68144608 C1021.12070177 655.40069892 1022.52393694 660.11992713 1023.92738438 664.83909225 C1024.36878586 666.32353873 1024.81007822 667.80801765 1025.2512579 669.29253006 C1026.30877747 672.85070901 1027.36777493 676.40843144 1028.43040466 679.96508789 C1030.21323713 685.9386155 1031.98532516 691.91379147 1033.6854763 697.91146374 C1034.22107675 699.79986861 1034.76199121 701.6867637 1035.30300903 703.57362366 C1035.95632803 705.85684959 1036.60012724 708.14283305 1037.23190308 710.43211365 C1040.01197796 720.09235904 1043.30063179 726.68371943 1052 732 C1054.96802158 732.98934053 1056.92378402 733.13250536 1060.0211792 733.14717102 C1061.05854218 733.15432632 1062.09590515 733.16148163 1063.16470337 733.16885376 C1064.3024118 733.17154266 1065.44012024 733.17423157 1066.61230469 733.17700195 C1067.81094147 733.18357315 1069.00957825 733.19014435 1070.24453735 733.19691467 C1074.2203191 733.21666262 1078.1960605 733.22831559 1082.171875 733.23828125 C1083.54212718 733.24232977 1084.91237915 733.24644672 1086.28263092 733.25063133 C1092.72136525 733.26967887 1099.16008816 733.28391028 1105.59884524 733.2922433 C1113.02348628 733.30201167 1120.44782886 733.32832219 1127.87236476 733.36874419 C1133.61601407 733.39893821 1139.35957799 733.41371531 1145.1033051 733.41702431 C1148.53143517 733.41937127 1151.95924625 733.4282846 1155.38729095 733.45348549 C1159.21514205 733.47780083 1163.0422127 733.47692518 1166.87011719 733.4699707 C1167.9997287 733.48278076 1169.12934021 733.49559082 1170.29318237 733.50878906 C1176.76595753 733.46592815 1180.74474321 732.87424677 1186 729 C1191.01243506 723.59184638 1191.14560561 719.17092194 1191.13028526 712.06529999 C1191.13222869 711.13582009 1191.13417212 710.20634019 1191.13617444 709.24869424 C1191.14152841 706.10486977 1191.13972716 702.96108875 1191.13803101 699.81726074 C1191.14044745 697.55229375 1191.14330921 695.2873272 1191.14658034 693.02236128 C1191.15435684 686.77546492 1191.15595399 680.52857952 1191.15663147 674.28167892 C1191.15827867 668.24383703 1191.16461029 662.20600145 1191.17095293 656.16816314 C1191.1830389 644.57109979 1191.19169548 632.97403704 1191.19799107 621.3769692 C1191.20801532 602.9724419 1191.22726371 584.56793319 1191.24953346 566.16341703 C1191.25806441 559.0864102 1191.26633039 552.00940304 1191.27463722 544.93239594 C1191.27556223 544.14610747 1191.27648724 543.359819 1191.27744028 542.5497036 C1191.29943816 523.82659465 1191.31922647 505.10348364 1191.33789062 486.38037109 C1191.3387103 485.56094339 1191.33952998 484.74151569 1191.3403745 483.89725684 C1191.35946459 464.77373053 1191.37642549 445.65020433 1191.38873291 426.52667236 C1191.38952741 425.29255305 1191.38952741 425.29255305 1191.39033796 424.03350203 C1191.39458967 417.40161211 1191.39876593 410.76972214 1191.40292276 404.13783216 C1191.42010518 376.81865564 1191.44729528 349.49950453 1191.48608314 322.18034983 C1191.49154532 318.32547935 1191.49687824 314.4706087 1191.50212479 310.61573792 C1191.50315917 309.85703007 1191.50419355 309.09832223 1191.50525927 308.31662324 C1191.52161 296.08542314 1191.52711451 283.85424077 1191.52842245 271.6230308 C1191.52992389 259.34024702 1191.54203634 247.0575116 1191.56517886 234.77474916 C1191.57741398 228.11526313 1191.58432922 221.45584499 1191.57846642 214.79634285 C1191.57320243 208.70834386 1191.58154015 202.62052576 1191.60102279 196.53255707 C1191.60562825 194.32198011 1191.60508748 192.11138567 1191.59907441 189.90081209 C1191.59166543 186.91188682 1191.60243556 183.92358029 1191.61803246 180.93470001 C1191.61146991 180.06265295 1191.60490737 179.19060588 1191.59814596 178.29213315 C1191.6563083 172.4684666 1191.6563083 172.4684666 1193.2931473 170.23738453 C1195 169 1195 169 1198.6875 169.3125 C1199.780625 169.539375 1200.87375 169.76625 1202 170 C1206.33217981 183.4549117 1210.35426445 196.97719188 1214.21484375 210.57421875 C1214.81652309 212.68534112 1215.41847071 214.79638704 1216.0206604 216.90736389 C1217.31560723 221.44845135 1218.60899898 225.98997758 1219.90115356 230.53186035 C1223.07223849 241.67735677 1226.25215675 252.82033523 1229.43111229 263.96358871 C1230.18440729 266.60418935 1230.93756599 269.2448288 1231.69060707 271.88550186 C1240.6526195 303.31229082 1249.65647993 334.72705813 1258.66668648 366.14005834 C1260.32212341 371.91163039 1261.97706308 377.68334492 1263.63186342 383.45509952 C1265.21782254 388.98663922 1266.80423181 394.51804973 1268.39087504 400.04939324 C1269.3509114 403.39638038 1270.31071105 406.74343504 1271.26996422 410.09064674 C1275.29260165 424.12705374 1279.3311206 438.15858269 1283.41357422 452.17773438 C1284.4544512 455.75909893 1285.49503486 459.34054861 1286.53559685 462.9220047 C1287.49624851 466.22132947 1288.46287916 469.51886068 1289.42982483 472.81634521 C1290.01071074 474.81400438 1290.59132862 476.81174152 1291.17163086 478.80957031 C1291.43080481 479.6859893 1291.68997875 480.56240829 1291.95700645 481.46538544 C1292.68007041 483.96791208 1293.35461195 486.47637747 1294 489 C1294.20127377 489.76690533 1294.40254753 490.53381065 1294.6099205 491.32395554 C1296.80641603 501.18778144 1296.27664694 511.37950561 1296.25537109 521.42480469 C1296.25812426 523.59238313 1296.26180614 525.75996056 1296.26634216 527.92753601 C1296.27442475 532.57749548 1296.27663011 537.22740695 1296.27439499 541.87737274 C1296.27155303 549.23129682 1296.28594511 556.58512554 1296.30337524 563.93902588 C1296.35032337 584.8442646 1296.37435347 605.74949601 1296.38085938 626.65478516 C1296.38460847 638.21406559 1296.40262034 649.77323731 1296.43595374 661.33247113 C1296.4561718 668.64229314 1296.45853665 675.95183486 1296.44767356 683.26167345 C1296.44506797 687.80610244 1296.45906213 692.35036781 1296.47775459 696.89475441 C1296.48307972 699.00104234 1296.48157434 701.10736035 1296.47271919 703.2136364 C1296.46160079 706.09022397 1296.47502628 708.96570415 1296.49447632 711.84222412 C1296.48078933 713.09023367 1296.48078933 713.09023367 1296.46682584 714.36345553 C1296.54140678 720.03675815 1297.76038845 723.31829584 1301 728 C1305.33161237 732.01466512 1308.46203283 733.12108315 1314.28692627 733.14717102 C1315.38318832 733.15432632 1316.47945038 733.16148163 1317.6089325 733.16885376 C1318.8120961 733.17154266 1320.0152597 733.17423157 1321.25488281 733.17700195 C1322.52179459 733.18357315 1323.78870636 733.19014435 1325.0940094 733.19691467 C1329.29703509 733.21793726 1333.50006106 733.22831585 1337.703125 733.23828125 C1339.15138518 733.24232958 1340.59964517 733.24644652 1342.04790497 733.25063133 C1348.85291958 733.26967962 1355.65792338 733.283911 1362.46295953 733.2922433 C1370.31151708 733.30201262 1378.15979236 733.32832539 1386.00825047 733.36874419 C1392.07886086 733.39893158 1398.14939045 733.41371468 1404.22007442 733.41702431 C1407.84381689 733.41937197 1411.46725771 733.42829474 1415.09091949 733.45348549 C1419.13663924 733.48115608 1423.18173063 733.47692713 1427.22753906 733.4699707 C1428.42260574 733.48278076 1429.61767242 733.49559082 1430.84895325 733.50878906 C1437.46745194 733.46729387 1441.64459218 733.00371124 1447 729 C1451.91956562 723.69204762 1452.14697973 719.40533882 1452.13803101 712.42608643 C1452.14085229 711.53980867 1452.14367357 710.65353092 1452.14658034 709.74039626 C1452.15494063 706.75823718 1452.15626586 703.77611516 1452.15771484 700.79394531 C1452.16238229 698.66023148 1452.16752574 696.52651864 1452.17311096 694.39280701 C1452.18440308 689.78966617 1452.19283215 685.18653185 1452.19923019 680.58338165 C1452.20990871 673.29512624 1452.23015588 666.00691728 1452.25234985 658.71868896 C1452.31427036 637.99037824 1452.36820267 617.26206952 1452.40136719 596.53369141 C1452.41975455 585.09159415 1452.4487469 573.64957407 1452.4893719 562.2075336 C1452.51038227 556.15572357 1452.5258906 550.10401058 1452.52817917 544.05216217 C1452.53033811 538.34923746 1452.5463339 532.64651438 1452.57256889 526.9436512 C1452.57971756 524.86008633 1452.5818846 522.77649692 1452.57846642 520.69292259 C1452.5624441 509.06083169 1453.08718687 498.30044266 1456 487 C1456.20524166 486.18910667 1456.41048332 485.37821335 1456.62194443 484.5427475 C1457.15745067 482.54604675 1457.73834222 480.57185799 1458.34643555 478.59619141 C1458.56245643 477.87372317 1458.77847731 477.15125494 1459.00104427 476.40689373 C1459.70651249 474.05312926 1460.42156306 471.70239972 1461.13671875 469.3515625 C1461.64975926 467.64620382 1462.16214085 465.94064679 1462.67391968 464.23490906 C1463.76672763 460.59697096 1464.86363168 456.96030482 1465.96389771 453.32461548 C1467.72127325 447.51697269 1469.46891437 441.7064296 1471.21459961 435.89526367 C1471.813 433.9034871 1472.41140395 431.91171159 1473.0098114 429.91993713 C1473.3078385 428.92790346 1473.60586559 427.93586979 1473.91292381 426.91377449 C1474.82452866 423.88050242 1475.73702108 420.8474986 1476.6497345 417.81455994 C1482.26416584 399.15329827 1487.80689352 380.47116902 1493.33187866 361.78326416 C1495.53964861 354.31718212 1497.7505433 346.85202418 1499.9609375 339.38671875 C1500.32716091 338.14971537 1500.32716091 338.14971537 1500.70078278 336.88772202 C1509.40188331 307.49891085 1518.1389658 278.12079109 1526.90232849 248.75048828 C1529.39841924 240.38333495 1531.88621838 232.01386458 1534.35914612 223.63983154 C1535.58826841 219.48203057 1536.82440458 215.32634413 1538.06289673 211.17132568 C1538.59558604 209.3781058 1539.12497807 207.58390243 1539.65072632 205.78863525 C1540.33925142 203.43844903 1541.03904351 201.09193934 1541.7421875 198.74609375 C1542.29688721 196.86942017 1542.29688721 196.86942017 1542.86279297 194.95483398 C1543.93032223 192.18104553 1544.57845867 190.68979952 1547 189 C1551.42105263 189.42105263 1551.42105263 189.42105263 1553 191 C1554.36465102 205.08700766 1551.49757852 219.41971906 1549.6173771 233.34228145 C1549.11650927 237.06761252 1548.62709524 240.79445134 1548.13620377 244.52110767 C1547.2811662 251.00032597 1546.41900752 257.47856428 1545.55197716 263.9561882 C1544.28020498 273.45785898 1543.01952281 282.96097706 1541.7612882 292.46444881 C1539.68273963 308.16157969 1537.59546465 323.85753763 1535.50305176 339.55282593 C1533.46133264 354.86826337 1531.42414964 370.18429363 1529.39294434 385.50112915 C1529.204753 386.92023447 1529.204753 386.92023447 1529.01275982 388.36800859 C1528.3794822 393.14365259 1527.74630004 397.91930924 1527.11316514 402.69497216 C1522.88525093 434.58504575 1518.650243 466.47417204 1514.40771484 498.36230469 C1514.23043161 499.69481996 1514.23043161 499.69481996 1514.04956689 501.05425473 C1512.46979083 512.9281058 1510.88963313 524.80190607 1509.30934131 536.67568851 C1508.81538258 540.3871681 1508.32145056 544.09865124 1507.82752228 547.81013489 C1507.73452218 548.50895747 1507.64152207 549.20778005 1507.54570379 549.92777907 C1506.74996718 555.90713753 1505.95425236 561.88649889 1505.15855253 567.86586225 C1504.82782685 570.35110147 1504.49709093 572.83633933 1504.16634429 575.32157576 C1501.74825819 593.49135532 1499.33368839 611.66159916 1496.92294598 629.83235455 C1495.61056928 639.72202522 1494.29336269 649.61102856 1492.96925396 659.49913549 C1492.09721895 666.01285275 1491.22941055 672.52712271 1490.36525971 679.04189062 C1489.79765515 683.31940658 1489.22503117 687.59620102 1488.64780194 691.87242824 C1488.23097198 694.97309415 1487.82261851 698.07487683 1487.41308594 701.17651367 C1487.26704139 702.24521981 1487.12099684 703.31392595 1486.9705267 704.41501713 C1485.19739754 715.64055911 1485.19739754 715.64055911 1487.625 726.375 C1491.01054999 730.11692368 1493.53481506 732.64920226 1498.60105705 733.37013245 C1501.90797781 733.52159501 1505.19328993 733.54023511 1508.50366211 733.51757812 C1509.76125839 733.5245874 1511.01885468 733.53159668 1512.31455994 733.53881836 C1515.75273945 733.55700313 1519.19043709 733.55000421 1522.62862468 733.53730202 C1526.2341645 733.52714676 1529.83966417 733.53657489 1533.44520569 733.54284668 C1539.50024795 733.55011672 1545.55509485 733.54055343 1551.61010742 733.52148438 C1558.59938288 733.4997265 1565.58819136 733.50676136 1572.57745546 733.52879 C1578.58871694 733.54697426 1584.59983827 733.54948732 1590.61111838 733.53903532 C1594.19676044 733.53281566 1597.78218343 733.53192213 1601.3678112 733.54518127 C1605.3678006 733.55894025 1609.36699229 733.53984104 1613.36694336 733.51757812 C1614.54794617 733.52567505 1615.72894897 733.53377197 1616.94573975 733.54211426 C1625.28115477 733.45623708 1629.6276143 732.14755998 1635.8125 726.375 C1641.78901753 718.47681829 1641.00839207 705.02044516 1642.05604553 695.44416809 C1642.25467394 693.65857083 1642.45368951 691.87301659 1642.65305704 690.0875017 C1643.19782451 685.19856077 1643.73713339 680.30903098 1644.2755357 675.41938555 C1644.85788101 670.13954168 1645.44532388 664.86026471 1646.03215027 659.58091736 C1647.04770908 650.43826408 1648.06007972 641.29526233 1649.07029915 632.15201759 C1650.53176812 618.92484683 1651.99831182 605.69824254 1653.46612673 592.47177466 C1655.84868544 571.00149161 1658.22748393 549.53079373 1660.60375977 528.05981445 C1662.90989059 507.22273553 1665.21723718 486.385792 1667.52661133 465.54907227 C1667.66889627 464.26527523 1667.8111812 462.9814782 1667.95777781 461.65877823 C1669.51092422 447.64550456 1671.06442757 433.63227048 1672.61820889 419.61906719 C1672.75473047 418.38779723 1672.89125206 417.15652727 1673.03191067 415.8879461 C1674.15381049 405.76970049 1674.15381049 405.76970049 1674.66912597 401.12246724 C1676.26725482 386.71001407 1677.86428825 372.29744045 1679.45937168 357.8846499 C1680.45951241 348.84770638 1681.46032839 339.81083784 1682.461675 330.77402786 C1683.15066148 324.55571544 1683.83873522 318.33730298 1684.52609319 312.11881034 C1684.94316658 308.34769859 1685.36115743 304.57668897 1685.77942126 300.80570909 C1685.97088645 299.07780899 1686.16197225 297.3498668 1686.35264278 295.62187884 C1686.61170805 293.27450657 1686.87213844 290.92728957 1687.13290501 288.58010578 C1687.27725375 287.27587109 1687.42160249 285.9716364 1687.57032543 284.62787944 C1687.71211804 283.43067923 1687.85391065 282.23347901 1688 281 C1688.14163383 279.72991032 1688.28326767 278.45982064 1688.42919344 277.15124339 C1689 274 1689 274 1691 272 C1696.11117519 271.45625796 1696.11117519 271.45625796 1698.62741089 272.99557495 C1700.79808357 276.16546073 1700.75198799 279.65294682 1701.02392578 283.38330078 C1701.13457115 284.67644447 1701.13457115 284.67644447 1701.24745178 285.99571228 C1701.40736919 287.88732201 1701.56087241 289.77948199 1701.70886612 291.67206192 C1701.95136708 294.77272762 1702.21041852 297.87165612 1702.47311401 300.97067261 C1702.94469526 306.56794395 1703.40130607 312.16632658 1703.85345459 317.76519775 C1710.69423229 402.4054068 1720.01022031 486.81300261 1729.14387321 571.23033333 C1729.44585946 574.02155587 1729.74783623 576.81277944 1730.04980469 579.60400391 C1730.12469715 580.29620293 1730.19958961 580.98840195 1730.27675153 581.70157669 C1731.51319154 593.13136154 1732.74054503 604.56210465 1733.96450721 615.99323171 C1735.24212408 627.92418862 1736.52724236 639.85431827 1737.81987774 651.78365755 C1738.53737973 658.40690214 1739.2515305 665.03047759 1739.95760727 671.654953 C1740.61380488 677.8096675 1741.27946343 683.96328479 1741.95247841 690.11618233 C1742.19661529 692.36322928 1742.43734497 694.61064949 1742.67437172 696.85845757 C1742.9985709 699.92792814 1743.33514044 702.99580307 1743.67477417 706.06359863 C1743.81004117 707.38648148 1743.81004117 707.38648148 1743.94804084 708.73608923 C1744.69066707 715.26351882 1745.67752542 722.20383258 1749.97265625 727.375 C1751.00712891 728.179375 1751.00712891 728.179375 1752.0625 729 C1752.75472656 729.556875 1753.44695312 730.11375 1754.16015625 730.6875 C1757.4060095 733.00301314 1759.40321851 733.13013344 1763.36322021 733.14717102 C1765.0708252 733.15790398 1765.0708252 733.15790398 1766.81292725 733.16885376 C1768.69555267 733.17288712 1768.69555267 733.17288712 1770.61621094 733.17700195 C1771.93335083 733.18357315 1773.25049072 733.19014435 1774.60754395 733.19691467 C1778.22754154 733.21433081 1781.84752593 733.22487839 1785.46755505 733.2331202 C1787.72933112 733.23826977 1789.9911031 733.24434556 1792.25287628 733.25063133 C1799.32966581 733.26968636 1806.40644489 733.28391602 1813.48325515 733.2922433 C1821.65161061 733.30201361 1829.81969493 733.32832617 1837.98795485 733.36874419 C1844.30141484 733.39891178 1850.61479714 733.41371283 1856.9283278 733.41702431 C1860.69904239 733.41937436 1864.46946742 733.42832816 1868.24010468 733.45348549 C1871.78932563 733.4767824 1875.33806674 733.48099331 1878.88734436 733.47072411 C1880.80659088 733.4699934 1882.7258131 733.48907404 1884.6449585 733.50878906 C1891.04519719 733.4701331 1895.19472903 733.42318672 1900 729 C1903.99469068 724.37456869 1904.37714737 720.87620177 1904 715 C1903.60491373 711.45902764 1903.06355806 707.94798744 1902.50390625 704.4296875 C1902.27440529 702.93165085 1902.27440529 702.93165085 1902.04026794 701.40335083 C1901.55332694 698.22633147 1901.05883294 695.05056473 1900.5625 691.875 C1894.79715426 654.96317501 1894.79715426 654.96317501 1899 649 C1901.1875 649 1901.1875 649 1904 650 C1905.20141602 651.54003906 1905.20141602 651.54003906 1906.37890625 653.515625 C1906.81178955 654.23943359 1907.24467285 654.96324219 1907.69067383 655.70898438 C1909.35086347 658.6139293 1910.95610938 661.5444526 1912.53662109 664.4934082 C1932.07648405 700.83283543 1966.37156386 727.72134033 2005.83984375 739.6015625 C2040.2213715 749.26010489 2079.66899331 750.26823156 2111.93310547 733.05957031 C2118.47096736 729.3439249 2124.33652717 724.92394497 2130 720 C2131.24716797 718.95199219 2131.24716797 718.95199219 2132.51953125 717.8828125 C2138.06134219 713.09863777 2142.69357537 707.9654031 2147.1875 702.1875 C2149.62847901 699.24149085 2150.46072703 699.05087481 2154.3125 698.6875 C2158.79934067 699.06774074 2159.88731826 699.78943519 2163 703 C2164.81910137 706.79354278 2165.96811793 710.82090808 2167.22851562 714.82617188 C2169.66167373 722.07984556 2172.70060735 727.31586058 2179.53198147 731.06708527 C2184.22666421 733.36428456 2188.29667923 733.56227015 2193.45680237 733.50793457 C2194.37749809 733.51417453 2195.29819381 733.5204145 2196.2467894 733.52684355 C2199.31526296 733.54272966 2202.38293732 733.53018635 2205.45141602 733.51757812 C2207.65796368 733.52300114 2209.86450772 733.5301248 2212.07104492 733.53881836 C2218.05234595 733.55703205 2224.03337056 733.54999236 2230.01467633 733.53730202 C2236.27744614 733.5271656 2242.5401925 733.53656937 2248.80296326 733.54284668 C2259.9917332 733.55058637 2271.18040179 733.53816753 2282.36914747 733.51780933 C2292.50649577 733.49993507 2302.64366085 733.50304761 2312.78100586 733.52148438 C2324.56546974 733.54290684 2336.34984441 733.55085012 2348.13432831 733.53903532 C2354.36803997 733.53280133 2360.60162551 733.53196244 2366.83532906 733.54518127 C2372.69510329 733.55673964 2378.55453161 733.54871384 2384.41426849 733.52560425 C2386.56409315 733.52031739 2388.71394695 733.5218305 2390.86375999 733.53065491 C2393.79962613 733.54159443 2396.73438555 733.52786553 2399.67018127 733.50793457 C2400.51979779 733.51685746 2401.36941431 733.52578034 2402.24477679 733.53497362 C2409.37981186 733.44109307 2413.53388379 731.30170846 2418.8125 726.375 C2424.97616749 718.19925517 2424.17543253 703.52927242 2425.2590332 693.65966797 C2425.47745399 691.6997788 2425.69624465 689.73993083 2425.91537476 687.78012085 C2426.50860817 682.46353225 2427.09622129 677.14633668 2427.68249917 671.82897711 C2428.17739095 667.34505073 2428.67500463 662.86142804 2429.17258328 658.37779915 C2430.35338051 647.73717284 2431.52957734 637.09604487 2432.70288086 626.45458984 C2433.76560468 616.8166622 2434.83328872 607.17930092 2435.90600586 597.54248047 C2443.72213188 527.41474352 2443.72213188 527.41474352 2450.2856245 457.16207218 C2451.52283577 442.65453094 2453.16878159 428.19045323 2454.85783005 413.72964096 C2455.13418674 411.35868387 2455.40798483 408.98744242 2455.68118286 406.61611938 C2458.83428003 379.27035423 2462.16161233 351.94531093 2465.57112885 324.63042068 C2465.93684701 321.69274521 2466.29972682 318.75473108 2466.66192627 315.81661987 C2467.22985088 311.21520613 2467.80673395 306.61500369 2468.39084435 302.01561737 C2468.6052681 300.31716721 2468.81681032 298.61835055 2469.02533913 296.91916656 C2469.31083529 294.59824363 2469.60695673 292.27892651 2469.90600586 289.9597168 C2470.06983261 288.65689255 2470.23365936 287.3540683 2470.40245056 286.01176453 C2471 283 2471 283 2473 281 C2475.9375 280.625 2475.9375 280.625 2479 281 C2482.77468861 284.43893142 2482.69102236 288.8897029 2483.05795288 293.68354797 C2483.13883471 294.58999868 2483.21971653 295.49644939 2483.30304933 296.4303683 C2483.48282046 298.45170278 2483.65702511 300.47353764 2483.82658124 302.4957546 C2484.32354175 308.38313856 2484.87184588 314.26582692 2485.41522217 320.14907837 C2485.53579991 321.46302186 2485.65637764 322.77696536 2485.78060925 324.13072532 C2487.34264318 341.03727832 2489.17232789 357.91607143 2490.98759559 374.7969477 C2491.28632802 377.57604201 2491.58443726 380.3552025 2491.88235927 383.1343838 C2493.25634691 395.95008515 2494.63665822 408.7651005 2496.01863533 421.57994244 C2496.57854281 426.77329757 2497.13776279 431.96672673 2497.69703293 437.16015053 C2499.5599261 454.45731333 2501.42402183 471.75434566 2503.29242897 489.05091381 C2503.46979163 490.6928653 2503.46979163 490.6928653 2503.65073737 492.36798753 C2503.76920336 493.46469248 2503.88766935 494.56139743 2504.00972521 495.69133586 C2504.24964987 497.9124691 2504.48957219 500.13360259 2504.72949219 502.35473633 C2504.84849295 503.45641245 2504.96749372 504.55808858 2505.09010057 505.69314883 C2507.0316417 523.66963972 2508.96425652 541.64707873 2510.89324088 559.62492093 C2512.88489842 578.185617 2514.88406038 596.74549234 2516.89073503 615.30457097 C2518.01296555 625.68537919 2519.1319754 636.06651177 2520.2426033 646.44856834 C2521.18421262 655.25037709 2522.13264119 664.05141704 2523.09002329 672.85152473 C2523.57751592 677.33439101 2524.06177286 681.81754417 2524.53728294 686.30169868 C2524.97271271 690.40715341 2525.41742564 694.5114936 2525.86945991 698.61515228 C2526.03100363 700.09654732 2526.18918511 701.57831385 2526.34359653 703.06046929 C2527.33561889 716.01787543 2527.33561889 716.01787543 2532.97265625 727.375 C2533.66230469 727.91125 2534.35195312 728.4475 2535.0625 729 C2535.75472656 729.556875 2536.44695313 730.11375 2537.16015625 730.6875 C2540.38327156 732.98679245 2542.35657858 733.13000455 2546.28729248 733.14717102 C2547.969655 733.15790398 2547.969655 733.15790398 2549.68600464 733.16885376 C2550.92238678 733.17154266 2552.15876892 733.17423157 2553.43261719 733.17700195 C2554.73024994 733.18357315 2556.02788269 733.19014435 2557.36483765 733.19691467 C2560.93111786 733.21433026 2564.49738466 733.22487826 2568.06369686 733.2331202 C2570.29197103 733.23826992 2572.52024104 733.24434571 2574.74851227 733.25063133 C2581.72065029 733.26968626 2588.69277772 733.28391591 2595.66493678 733.2922433 C2603.712173 733.30201337 2611.75913398 733.32832534 2619.80627322 733.36874419 C2626.02631575 733.39891323 2632.24627944 733.41371297 2638.46639371 733.41702431 C2642.1812188 733.41937421 2645.89574995 733.42832599 2649.61049652 733.45348549 C2653.75710846 733.48111554 2657.90310653 733.47693271 2662.04980469 733.4699707 C2663.2780899 733.48278076 2664.50637512 733.49559082 2665.7718811 733.50878906 C2672.16174586 733.46962246 2676.16418768 733.34062832 2681 729 C2681.78375 728.319375 2682.5675 727.63875 2683.375 726.9375 C2688.38288828 717.88477888 2683.75551653 703.17051334 2682.26660156 693.37670898 C2681.96887251 691.37842228 2681.67185386 689.38002963 2681.37548161 687.38154125 C2680.56171004 681.9080228 2679.737998 676.43604017 2678.91266465 670.96425486 C2678.02426768 665.06220545 2677.14526862 659.15875597 2676.2651825 653.25546265 C2674.73891831 643.02628211 2673.20699142 632.79796195 2671.67111206 622.57022095 C2669.3315205 606.98989093 2667.00214051 591.40804454 2664.67484437 575.82587378 C2663.73912882 569.5611653 2662.80310155 563.2965034 2661.86705017 557.03184509 C2661.76318597 556.33669878 2661.65932177 555.64155246 2661.55231018 554.92534111 C2659.95341261 544.224497 2658.35270566 533.52392449 2656.75099182 522.82350159 C2650.90045747 483.73697596 2645.07128628 444.64732299 2639.26171875 405.5546875 C2639.1146091 404.5647869 2639.1146091 404.5647869 2638.96452755 403.55488831 C2637.29899832 392.34741652 2635.63361803 381.1399226 2633.96845651 369.93239617 C2631.1109539 350.69993162 2628.24895905 331.46814013 2625.38378906 312.23681641 C2624.10029802 303.62106375 2622.81688642 295.00529926 2621.5335536 286.38952303 C2621.17629681 283.99105542 2620.81902791 281.59258962 2620.46174669 279.19412565 C2616.19472832 250.54809564 2611.94604737 221.89954985 2607.74571067 193.24366313 C2606.92263651 187.62961458 2606.09717053 182.01592265 2605.26976013 176.4025116 C2605.15856399 175.64809058 2605.04736786 174.89366957 2604.93280214 174.11638731 C2604.39297692 170.45452269 2603.85281928 166.79270731 2603.31239605 163.1309309 C2602.13261068 155.13286517 2600.96554387 147.13310939 2599.8087759 139.13167763 C2599.13142415 134.46613171 2598.44254107 129.80234862 2597.74998283 125.13903809 C2597.44366383 123.0595824 2597.14229817 120.97938941 2596.84652901 118.89840698 C2596.45321562 116.13431388 2596.0424237 113.37338453 2595.62695312 110.61254883 C2595.52013183 109.82971936 2595.41331053 109.0468899 2595.30325222 108.24033833 C2594.3297088 101.98324557 2592.13064826 96.14103465 2586.9375 92.125 C2582.14899692 88.6609765 2578.02608131 88.85158345 2572.33428955 88.85282898 C2571.43828372 88.84915229 2570.54227788 88.8454756 2569.61912036 88.8416875 C2566.60447294 88.83063848 2563.58985997 88.82680476 2560.57519531 88.82299805 C2558.41864919 88.81673435 2556.26210415 88.81008764 2554.1055603 88.80308533 C2548.23769024 88.78566779 2542.36982833 88.77512165 2536.50193882 88.7668798 C2532.83725658 88.76173158 2529.17257687 88.75565579 2525.50789642 88.74936867 C2514.04589078 88.73031508 2502.58389158 88.7160839 2491.12187314 88.7077567 C2477.88347908 88.69798058 2464.64525205 88.67165183 2451.40691686 88.63125581 C2441.17922931 88.60111567 2430.9515897 88.58628984 2420.72385859 88.58297569 C2414.61300295 88.58062296 2408.50232572 88.57163323 2402.39151764 88.54651451 C2396.64265499 88.52326549 2390.89408864 88.51898794 2385.14519119 88.52927589 C2383.03566885 88.52977212 2380.92613208 88.5234262 2378.81665421 88.50971985 C2375.93529512 88.49204631 2373.05500462 88.49908499 2370.17364502 88.51225281 C2369.34007264 88.50128356 2368.50650027 88.49031432 2367.64766812 88.47901267 C2361.96624886 88.5416405 2358.68775222 89.75529652 2354 93 C2350.0085841 97.31504421 2347.92597604 101.16334952 2347.16107845 106.97323895 C2347.02476102 107.98150161 2346.88844358 108.98976428 2346.74799532 110.02858037 C2346.60588816 111.13512953 2346.46378099 112.24167869 2346.31736755 113.38175964 C2346.08165774 115.14921106 2346.08165774 115.14921106 2345.84118611 116.95236856 C2345.40581549 120.22812315 2344.97696474 123.5046137 2344.55080998 126.78157222 C2344.08880672 130.32184484 2343.61844871 133.86100827 2343.14910889 137.40031433 C2342.33303772 143.56317101 2341.52230687 149.72671166 2340.7151165 155.89073753 C2339.52964692 164.9433215 2338.33602125 173.99481611 2337.14056576 183.04608611 C2335.17666352 197.91726845 2333.21925419 212.78929804 2331.26586914 227.66186523 C2329.41038628 241.78892104 2327.55217827 255.91561307 2325.68969727 270.04174805 C2325.52097796 271.32142337 2325.52097796 271.32142337 2325.34885018 272.62695073 C2324.78233211 276.92364142 2324.2157549 281.22032432 2323.64915156 285.51700377 C2319.8310974 314.47078182 2316.01854442 343.42528162 2312.21044922 372.38037109 C2312.04722233 373.62146134 2312.04722233 373.62146134 2311.88069794 374.88762411 C2310.7924115 383.16239855 2309.70418901 391.4371814 2308.61599899 399.71196852 C2305.38663152 424.26857288 2302.15667925 448.82510009 2298.92339021 473.38118845 C2297.89520003 481.19029357 2296.86767952 488.99948616 2295.84112583 496.80880658 C2295.07367165 502.64666824 2294.30517509 508.48439235 2293.53627086 514.32206321 C2293.22442051 516.69102157 2292.91292318 519.06002644 2292.60180593 521.4290812 C2292.18011175 524.63976161 2291.75715599 527.85027336 2291.33387756 531.06074524 C2291.15126339 532.45470049 2291.15126339 532.45470049 2290.96496004 533.87681645 C2290.38488252 538.26637818 2289.76404022 542.63765287 2289 547 C2282.9453125 547.1953125 2282.9453125 547.1953125 2281 547 C2278.3260425 544.3260425 2278.74962837 543.03939116 2278.7484436 539.30183411 C2278.74306076 538.08914856 2278.73767792 536.87646301 2278.73213196 535.62702942 C2278.7361466 534.27584793 2278.74031754 532.9246669 2278.74462891 531.57348633 C2278.74188001 530.15599363 2278.73820072 528.73850248 2278.73365784 527.3210144 C2278.72553335 524.26368442 2278.72338055 521.20642764 2278.72560501 518.14908791 C2278.728434 513.31203342 2278.71410039 508.47512551 2278.69662476 503.6381073 C2278.64956216 489.88172626 2278.62566523 476.12535441 2278.61914062 462.36889648 C2278.61538672 454.77487147 2278.59732777 447.18101155 2278.56404626 439.58705729 C2278.54384905 434.78188013 2278.54145412 429.97712933 2278.55232644 425.17192709 C2278.55493927 422.17563998 2278.54090116 419.17959937 2278.52224541 416.18337631 C2278.51693621 414.79791222 2278.51839848 413.41240235 2278.52728081 412.02695656 C2278.60481742 401.80433729 2278.60481742 401.80433729 2274 393 C2269.14091867 388.4964612 2265.70207553 387.87509195 2259.19451904 387.85282898 C2258.15065139 387.84731395 2258.15065139 387.84731395 2257.08569551 387.8416875 C2254.74820363 387.83065336 2252.41075621 387.82680729 2250.07324219 387.82299805 C2248.39944823 387.8167332 2246.72565566 387.81008638 2245.05186462 387.80308533 C2239.55021127 387.78204541 2234.04855763 387.77168315 2228.546875 387.76171875 C2226.65285477 387.7576712 2224.75883469 387.75355428 2222.86481476 387.74936867 C2213.96677028 387.73031731 2205.06873409 387.71608605 2196.17067313 387.7077567 C2185.89972391 387.69798345 2175.62899016 387.67166141 2165.35811687 387.63125581 C2157.41915731 387.6010958 2149.48025953 387.58628794 2141.54124379 387.58297569 C2136.79970445 387.5806251 2132.0583953 387.57166347 2127.31691742 387.54651451 C2122.8550062 387.52323073 2118.39347669 387.51900174 2113.93152046 387.52927589 C2112.29608706 387.52977129 2110.66063486 387.52344971 2109.02525902 387.50971985 C2106.78752247 387.49198769 2104.55115396 387.49911207 2102.31341553 387.51225281 C2100.43741983 387.50867028 2100.43741983 387.50867028 2098.52352524 387.50501537 C2093.08534012 388.26897131 2089.39434777 390.49557214 2085.625 394.5625 C2082.85170276 398.72244586 2082.86100298 402.03127367 2082.82299805 406.93066406 C2082.81314125 407.98247108 2082.81314125 407.98247108 2082.80308533 409.05552673 C2082.78337959 411.37556063 2082.77169503 413.69552983 2082.76171875 416.015625 C2082.75764322 416.80951378 2082.7535677 417.60340256 2082.74936867 418.42134857 C2082.72851818 422.62448363 2082.71421283 426.82758615 2082.70483398 431.03076172 C2082.69377978 435.3628943 2082.6593888 439.6945118 2082.61966228 444.02646255 C2082.59346211 447.36544725 2082.58513909 450.70430992 2082.58155251 454.04338837 C2082.57669425 455.63972192 2082.56510193 457.23605029 2082.54651451 458.83228302 C2082.52205226 461.07251778 2082.5231003 463.31142919 2082.5300293 465.55175781 C2082.52416306 466.82400208 2082.51829681 468.09624634 2082.51225281 469.40704346 C2083.2421298 474.78363272 2085.46745065 478.40359443 2089.25 482.34375 C2092.71557759 484.43097287 2096.05770557 484.98357398 2100 485.5 C2105.32557608 486.19763081 2109.1574415 486.99276042 2113 491 C2115.87156346 495.6983937 2116.42882192 499.65130786 2116.37231445 505.04296875 C2116.37779045 506.22022522 2116.37779045 506.22022522 2116.38337708 507.42126465 C2116.39146326 510.01023202 2116.37786898 512.5985686 2116.36328125 515.1875 C2116.36276158 517.00952148 2116.3632834 518.83154352 2116.36479187 520.65356445 C2116.36470218 524.48006532 2116.35429421 528.30635543 2116.33618164 532.1328125 C2116.31374923 536.9717752 2116.31309062 541.81042644 2116.31943321 546.64942646 C2116.38771163 615.3656304 2116.38771163 615.3656304 2102.234375 629.80078125 C2096.00441098 635.47546587 2090.57379639 636.47415821 2082.22265625 636.3046875 C2075.777143 635.69529352 2071.77256002 633.07551876 2067.25 628.5625 C2053.47807547 611.46523607 2057.70193112 581.16335452 2057.72389162 560.40444469 C2057.72638141 555.98707349 2057.71731693 551.56972254 2057.70985413 547.15235901 C2057.6971664 538.5200115 2057.69530605 529.88769517 2057.69765439 521.25533991 C2057.69944464 514.23032366 2057.69767284 507.2053168 2057.69342995 500.18030167 C2057.69283476 499.17666298 2057.69223957 498.1730243 2057.69162634 497.13897232 C2057.69041446 495.09939248 2057.68920033 493.05981265 2057.68798397 491.02023281 C2057.67713092 471.93273179 2057.67926011 452.84524848 2057.68536881 433.75774647 C2057.69053407 416.34455996 2057.67928884 398.93142946 2057.66027059 381.51825403 C2057.64083801 363.58652623 2057.63264579 345.65482486 2057.63639385 327.72308648 C2057.63829793 317.67665839 2057.63589633 307.63027792 2057.62167931 297.58385849 C2057.60969506 289.02948765 2057.60843867 280.47519375 2057.62046947 271.92082171 C2057.62630963 267.56740055 2057.6275948 263.2141196 2057.61546707 258.86070824 C2057.53846969 228.94618287 2057.53846969 228.94618287 2059.21076965 214.37844849 C2059.31027882 213.45481439 2059.40978799 212.5311803 2059.51231259 211.5795573 C2060.72942139 202.63969495 2064.06258196 194.91149011 2071.15625 189.15625 C2077.43132831 185.2210314 2083.7926533 185.30424128 2091 186 C2097.01367699 187.72130609 2101.64140303 192.91222439 2105 198 C2113.84915713 217.04209445 2111.02837459 243.24047943 2111.17578125 263.75390625 C2111.1877222 265.21857842 2111.19982816 266.68324925 2111.21209717 268.1479187 C2111.31091051 280.25676859 2111.31091051 280.25676859 2111.32592773 286.16479492 C2111.33602758 289.90152629 2111.36533403 293.63768498 2111.40724754 297.37418938 C2111.41946287 298.7778586 2111.42469632 300.18160848 2111.42244911 301.58532906 C2111.34457398 312.01418381 2111.34457398 312.01418381 2116 321 C2120.48333878 325.1552896 2123.68715983 326.12233269 2129.70452881 326.14717102 C2130.89334656 326.15432632 2132.08216431 326.16148163 2133.30700684 326.16885376 C2135.26603943 326.17288712 2135.26603943 326.17288712 2137.26464844 326.17700195 C2138.65273203 326.18326787 2140.04081395 326.18991478 2141.42889404 326.19691467 C2145.98904251 326.21794301 2150.54919126 326.22831618 2155.109375 326.23828125 C2156.68021919 326.24232932 2158.25106321 326.24644626 2159.82190704 326.25063133 C2167.20250492 326.26968063 2174.58309281 326.28391198 2181.96371055 326.2922433 C2190.47842409 326.30201392 2198.99287755 326.32832977 2207.50749946 326.36874419 C2214.09190583 326.3989225 2220.67623772 326.41371381 2227.26071191 326.41702431 C2231.1918468 326.41937294 2235.12270375 326.42830862 2239.05376434 326.45348549 C2242.75401861 326.47680137 2246.45381265 326.48098563 2250.1541214 326.47072411 C2252.1530807 326.46999432 2254.15201682 326.489061 2256.15087891 326.50878906 C2262.98287149 326.46925884 2267.5002603 326.20471799 2273 322 C2276.72250675 317.98361114 2278.11438322 314.96801584 2278.16113281 309.53320312 C2278.17533264 308.16949081 2278.17533264 308.16949081 2278.18981934 306.77822876 C2278.19421021 305.78922577 2278.19860107 304.80022278 2278.203125 303.78125 C2278.21009399 302.74801605 2278.21706299 301.7147821 2278.22424316 300.65023804 C2278.24178987 297.26678475 2278.24798032 293.88349711 2278.25 290.5 C2278.25100708 289.34808167 2278.25201416 288.19616333 2278.25305176 287.00933838 C2278.22025663 231.55759512 2274.07231453 172.52078943 2233.375 130.9375 C2222.28039253 119.92607898 2209.57267371 110.71099589 2196 103 C2194.87851563 102.34644531 2193.75703125 101.69289063 2192.6015625 101.01953125 C2158.46299652 81.6230453 2118.62951598 75.52626356 2079.875 75.6875 C2078.46701141 75.69073273 2078.46701141 75.69073273 2077.03057861 75.69403076 C2021.77705658 75.89690572 1974.39563914 92.05258142 1934 130 Z" fill="#fff" transform="translate(0,0)"/>
</svg>