<?xml version="1.0" encoding="UTF-8"?>
<svg version="1.1" xmlns="http://www.w3.org/2000/svg" width="2720" height="839">
<path d="M0 0 C55.11 0 110.22 0 167 0 C167.33 80.85 167.66 161.7 168 245 C170.64 236.09 173.28 227.18 176 218 C179.0625 208.375 179.0625 208.375 180.5078125 203.84765625 C182.6008871 197.15345037 184.44548009 190.38871118 186.32006836 183.63085938 C194.40594068 154.48343742 194.40594068 154.48343742 198.5 142.5625 C201.09403233 134.97601855 203.20421424 127.27038008 205.34155273 119.54467773 C208.72445255 107.33084128 212.32676249 95.19172817 216.19677734 83.12329102 C219.13237587 73.96526858 221.76841322 64.74819281 224.32177734 55.4765625 C226.49970297 47.63076783 228.91133176 39.88377971 231.43188477 32.14233398 C233.91244263 24.4516903 236.06787454 16.68919589 238.13500977 8.87817383 C238.36631592 8.00572021 238.59762207 7.1332666 238.8359375 6.234375 C239.03751465 5.46319336 239.2390918 4.69201172 239.44677734 3.89746094 C240 2 240 2 241 0 C292.81 0 344.62 0 398 0 C396.16155284 6.74097293 394.31084556 13.37954764 392.13671875 20.00390625 C391.86849808 20.82793442 391.6002774 21.65196259 391.32392883 22.5009613 C390.44791645 25.18906303 389.56785373 27.87581723 388.6875 30.5625 C388.06306932 32.47458269 387.43872194 34.38669258 386.81445312 36.29882812 C382.30729371 50.08637043 377.73042626 63.85023857 373.12802124 77.60623169 C368.68655479 90.88324795 364.3193582 104.18278235 360 117.5 C355.11438774 132.56306236 350.15029925 147.59773856 345.125 162.61474609 C340.38700943 176.77848241 335.7389507 190.96973914 331.13204956 205.17660522 C326.97150666 218.00280933 322.74843971 230.80661383 318.47097778 243.59429932 C317.57569555 246.27301839 316.68275249 248.95250423 315.79077148 251.63232422 C315.5074144 252.48354858 315.22405731 253.33477295 314.93211365 254.21179199 C314.37993012 255.87070435 313.82781455 257.52963933 313.27577209 259.18859863 C312.09270935 262.73954328 310.90525531 266.28868074 309.6953125 269.83056641 C308.63838871 272.92463988 307.59839214 276.02384032 306.5625 279.125 C306.27383057 279.94653564 305.98516113 280.76807129 305.68774414 281.61450195 C302.73206667 290.59755703 305.46552855 298.1967756 308.125 306.9375 C308.76569882 309.08292292 309.40497833 311.22877012 310.04296875 313.375 C310.36958496 314.47199219 310.69620117 315.56898438 311.03271484 316.69921875 C312.26432873 320.9020001 313.4284201 325.12164608 314.58813477 329.34472656 C317.54588935 340.11472803 320.77852517 350.76402854 324.22583008 361.38720703 C326.28274949 367.72975306 328.22463472 374.07594465 330.01171875 380.5 C331.26916286 384.9532408 332.60185786 389.3821892 333.9375 393.8125 C335.81226958 400.03577478 337.67317528 406.26247666 339.5 412.5 C341.3089556 418.67409169 343.1469935 424.83898855 345 431 C347.05975333 437.84841843 349.09459582 444.70349155 351.10546875 451.56640625 C352.71495065 457.05094649 354.35374078 462.526397 356 468 C358.05975333 474.84841843 360.09459582 481.70349155 362.10546875 488.56640625 C363.71495065 494.05094649 365.35374078 499.526397 367 505 C369.05861915 511.84464741 371.09491845 518.69521463 373.10107422 525.55541992 C374.22860636 529.40338288 375.37395556 533.24526334 376.5390625 537.08203125 C376.80267578 537.95214844 377.06628906 538.82226562 377.33789062 539.71875 C377.84191738 541.37966198 378.34821621 543.03988721 378.85742188 544.69921875 C380.79185535 551.08019931 382.42556165 557.5215393 384 564 C386.59510243 546.35490537 389.09380111 528.71350077 391.17227173 510.99908447 C392.59117867 498.95349723 394.23464968 486.94598496 395.9375 474.9375 C397.96206805 460.66019841 399.8688694 446.37534198 401.625 432.0625 C402.95903221 421.19120494 404.3377339 410.33616708 405.9375 399.5 C407.96016304 385.78910798 409.6320822 372.0385184 411.32583618 358.28390503 C412.96177372 345.02269164 414.68697264 331.78298114 416.625 318.5625 C418.25298827 307.45278312 419.73902434 296.33773355 421.0625 285.1875 C423.30231155 266.33519971 425.79359837 247.52137339 428.4453125 228.72265625 C428.96381628 225.04430947 429.48206225 221.36592653 430 217.6875 C430.1303363 216.7623761 430.26067261 215.8372522 430.3949585 214.88409424 C432.23599465 201.7895854 433.92111124 188.68846957 435.46313477 175.55566406 C436.90208431 163.41003608 438.60917815 151.30574696 440.32611084 139.19674683 C442.21837932 125.83291677 443.98128559 112.45912588 445.625 99.0625 C447.0886305 87.13508257 448.64551799 75.23423106 450.40405273 63.34594727 C452.50085593 48.92713753 454.21662425 34.45651021 455.98217773 19.99414062 C456.10824402 18.96869141 456.2343103 17.94324219 456.36419678 16.88671875 C456.60298493 14.94362545 456.83969872 13.00027577 457.07403564 11.05664062 C457.23497711 9.74953125 457.23497711 9.74953125 457.39916992 8.41601562 C457.53762581 7.27694763 457.53762581 7.27694763 457.67887878 6.11486816 C457.99192503 4.05318082 458.49423601 2.02305597 459 0 C539.19 0 619.38 0 702 0 C703.32 9.57 704.64 19.14 706 29 C707.84701594 41.90610693 707.84701594 41.90610693 710.0625 54.75 C711.13787369 60.40237743 711.78191643 66.09955748 712.4375 71.8125 C712.81621848 74.85986262 713.33286622 77.85840258 713.90625 80.875 C715.54257329 89.66266209 716.62856851 98.53743243 717.82275391 107.39355469 C719.2234645 117.97625771 719.2234645 117.97625771 721 128.5 C722.62941524 137.07242556 723.65704403 145.74860789 724.82275391 154.39355469 C725.92210861 162.52444215 727.04749164 170.62058855 728.58007812 178.68359375 C729.42850602 183.36375877 729.8954177 188.08863999 730.4375 192.8125 C730.81621848 195.85986262 731.33286622 198.85840258 731.90625 201.875 C733.54257329 210.66266209 734.62856851 219.53743243 735.82275391 228.39355469 C736.92210861 236.52444215 738.04749164 244.62058855 739.58007812 252.68359375 C740.42850602 257.36375877 740.8954177 262.08863999 741.4375 266.8125 C741.81621848 269.85986262 742.33286622 272.85840258 742.90625 275.875 C744.54257329 284.66266209 745.62856851 293.53743243 746.82275391 302.39355469 C748.2234645 312.97625771 748.2234645 312.97625771 750 323.5 C751.62941524 332.07242556 752.65704403 340.74860789 753.82275391 349.39355469 C755.2234645 359.97625771 755.2234645 359.97625771 757 370.5 C758.62941524 379.07242556 759.65704403 387.74860789 760.82275391 396.39355469 C761.92210861 404.52444215 763.04749164 412.62058855 764.58007812 420.68359375 C765.42850602 425.36375877 765.8954177 430.08863999 766.4375 434.8125 C766.81621848 437.85986262 767.33286622 440.85840258 767.90625 443.875 C769.54257329 452.66266209 770.62856851 461.53743243 771.82275391 470.39355469 C773.2234645 480.97625771 773.2234645 480.97625771 775 491.5 C776.62941524 500.07242556 777.65704403 508.74860789 778.82275391 517.39355469 C780.45392677 529.50513228 780.45392677 529.50513228 782.55273438 541.54296875 C783.12386633 544.68045346 783.54900106 547.84300745 784 551 C784.495 278.255 784.495 278.255 785 0 C831.53 0 878.06 0 926 0 C931.5378125 17.0775 931.5378125 17.0775 937.1875 34.5 C938.3427417 38.06103516 939.4979834 41.62207031 940.68823242 45.29101562 C942.12561035 49.72558594 942.12561035 49.72558594 942.80366516 51.8182373 C943.26563607 53.24346783 943.72793046 54.66859353 944.19050598 56.09362793 C946.95404018 64.60802441 949.68590705 73.13064908 952.33812237 81.6804657 C954.00293345 87.04274225 955.76163574 92.36965377 957.5625 97.6875 C959.34807259 102.96136058 961.08444972 108.24139636 962.69921875 113.5703125 C965.67486342 123.3067812 968.90136194 132.96273044 972.08169556 142.63378906 C979.41954291 164.95381749 986.65681534 187.30402687 993.78417969 209.69213867 C996.78712551 219.11992753 999.81102179 228.53676317 1002.97583008 237.91162109 C1003.98996807 240.96974876 1004.94387688 244.04068765 1005.875 247.125 C1007.93200644 253.90052733 1010.18329651 260.60751432 1012.45068359 267.31494141 C1012.73637207 268.16362793 1013.02206055 269.01231445 1013.31640625 269.88671875 C1013.56849854 270.63139404 1013.82059082 271.37606934 1014.08032227 272.14331055 C1015.4533074 276.40805678 1016.71259333 280.70864443 1018 285 C1018.495 143.925 1018.495 143.925 1019 0 C1112.39 0 1205.78 0 1302 0 C1312.33256565 53.95895394 1312.33256565 53.95895394 1315.5625 72.625 C1316.31123331 76.92209631 1317.0619869 81.21883924 1317.8125 85.515625 C1318.08780296 87.09547684 1318.08780296 87.09547684 1318.3686676 88.70724487 C1319.57146961 95.59661841 1320.80604057 102.47960039 1322.0625 109.359375 C1330.53445699 155.84911734 1338.51042403 202.82955491 1342 250 C1342.07516846 249.3922876 1342.15033691 248.7845752 1342.2277832 248.15844727 C1343.62881562 236.91524154 1345.14573321 225.7420794 1347.21118164 214.6015625 C1348.08034581 209.70373067 1348.71839044 204.78350228 1349.359375 199.8515625 C1350.87512763 188.49436767 1352.75682332 177.21935475 1354.75 165.9375 C1355.10132986 163.93408405 1355.45264801 161.93066604 1355.80395508 159.92724609 C1359.90667943 136.61460868 1364.16308955 113.32385601 1369.08886719 90.16943359 C1370.81953558 81.9971445 1372.40739934 73.80007929 1373.98568726 65.59735107 C1376.28592224 53.64669423 1378.63618244 41.71260347 1381.1875 29.8125 C1381.41300537 28.75901367 1381.63851074 27.70552734 1381.87084961 26.62011719 C1383.80082809 17.71683832 1385.91253208 8.87173868 1388 0 C1517.03 0 1646.06 0 1779 0 C1781.37889654 14.27337926 1783.71314651 28.48146004 1785.625 42.8125 C1786.78389062 51.4591117 1787.94862688 60.08094329 1789.57568359 68.6550293 C1790.42434872 73.34514927 1790.89428881 78.07880249 1791.4375 82.8125 C1791.81621848 85.85986262 1792.33286622 88.85840258 1792.90625 91.875 C1794.54257329 100.66266209 1795.62856851 109.53743243 1796.82275391 118.39355469 C1797.92210861 126.52444215 1799.04749164 134.62058855 1800.58007812 142.68359375 C1801.42850602 147.36375877 1801.8954177 152.08863999 1802.4375 156.8125 C1802.81621848 159.85986262 1803.33286622 162.85840258 1803.90625 165.875 C1805.54257329 174.66266209 1806.62856851 183.53743243 1807.82275391 192.39355469 C1809.2234645 202.97625771 1809.2234645 202.97625771 1811 213.5 C1812.62941524 222.07242556 1813.65704403 230.74860789 1814.82275391 239.39355469 C1816.2234645 249.97625771 1816.2234645 249.97625771 1818 260.5 C1819.62941524 269.07242556 1820.65704403 277.74860789 1821.82275391 286.39355469 C1822.92210861 294.52444215 1824.04749164 302.62058855 1825.58007812 310.68359375 C1826.42850602 315.36375877 1826.8954177 320.08863999 1827.4375 324.8125 C1827.81621848 327.85986262 1828.33286622 330.85840258 1828.90625 333.875 C1830.54257329 342.66266209 1831.62856851 351.53743243 1832.82275391 360.39355469 C1834.2234645 370.97625771 1834.2234645 370.97625771 1836 381.5 C1837.62941524 390.07242556 1838.65704403 398.74860789 1839.82275391 407.39355469 C1840.92210861 415.52444215 1842.04749164 423.62058855 1843.58007812 431.68359375 C1844.42850602 436.36375877 1844.8954177 441.08863999 1845.4375 445.8125 C1845.81621848 448.85986262 1846.33286622 451.85840258 1846.90625 454.875 C1848.54257329 463.66266209 1849.62856851 472.53743243 1850.82275391 481.39355469 C1852.2234645 491.97625771 1852.2234645 491.97625771 1854 502.5 C1855.62941524 511.07242556 1856.65704403 519.74860789 1857.82275391 528.39355469 C1858.92210861 536.52444215 1860.04749164 544.62058855 1861.58007812 552.68359375 C1862.42850602 557.36375877 1862.8954177 562.08863999 1863.4375 566.8125 C1863.81621848 569.85986262 1864.33286622 572.85840258 1864.90625 575.875 C1866.54257329 584.66266209 1867.62856851 593.53743243 1868.82275391 602.39355469 C1870.02757835 611.30450208 1871.29991998 620.16706345 1873 629 C1873.89114782 634.25777217 1874 638.51211372 1874 644 C1817.57 644 1761.14 644 1703 644 C1700.70197221 621.01972207 1700.70197221 621.01972207 1700.22216797 613.45532227 C1700.16335449 612.57285828 1700.10454102 611.69039429 1700.04394531 610.78118896 C1699.85674557 607.95979938 1699.67431342 605.13812747 1699.4921875 602.31640625 C1699.36077501 600.31671021 1699.22910676 598.31703096 1699.09719849 596.31736755 C1698.82457684 592.17387099 1698.5541928 588.03023713 1698.28564453 583.88647461 C1697.94170513 578.58047994 1697.59323848 573.27479446 1697.24328423 567.96919346 C1696.97258539 563.86094258 1696.70360546 559.75258067 1696.435215 555.64417839 C1696.3072156 553.68615136 1696.17882981 551.72814955 1696.05004501 549.77017403 C1695.87138854 547.04814059 1695.69489703 544.3259755 1695.51904297 541.60375977 C1695.43959946 540.40147987 1695.43959946 540.40147987 1695.35855103 539.1749115 C1695.11910358 535.4335832 1695 531.75311673 1695 528 C1675.2 528 1655.4 528 1635 528 C1632.90198535 553.15004005 1632.90198535 553.15004005 1630.8168335 578.30114746 C1630.36503269 583.7679425 1629.91205404 589.23463979 1629.45882797 594.70131683 C1629.12973919 598.67157618 1628.80131389 602.64188861 1628.47412109 606.61230469 C1628.14792415 610.57021304 1627.8200955 614.52798323 1627.49115372 618.48566437 C1627.36857956 619.96386138 1627.2465812 621.44210627 1627.12520981 622.92040253 C1626.95726255 624.96497107 1626.78721632 627.00935533 1626.61669922 629.05371094 C1626.52137909 630.20643494 1626.42605896 631.35915894 1626.32785034 632.54681396 C1625.96459544 636.37290959 1625.47670281 640.18637753 1625 644 C1567.91 644 1510.82 644 1452 644 C1452 637.78001247 1452.22402859 632.18983995 1453.13671875 626.12109375 C1453.25631454 625.28808746 1453.37591034 624.45508118 1453.49913025 623.59683228 C1453.75631074 621.80768332 1454.01613395 620.01891256 1454.27838135 618.23049927 C1454.98244676 613.42393722 1455.66520933 608.6143595 1456.34765625 603.8046875 C1456.48753967 602.82079544 1456.6274231 601.83690338 1456.77154541 600.82319641 C1458.17053745 590.91685193 1459.41076404 580.99290638 1460.625 571.0625 C1461.95780852 560.19107897 1463.33774037 549.33612327 1464.9375 538.5 C1466.96016304 524.78910798 1468.6320822 511.0385184 1470.32583618 497.28390503 C1471.96177372 484.02269164 1473.68697264 470.78298114 1475.625 457.5625 C1477.25298827 446.45278312 1478.73902434 435.33773355 1480.0625 424.1875 C1482.30231155 405.33519971 1484.79359837 386.52137339 1487.4453125 367.72265625 C1487.96381628 364.04430947 1488.48206225 360.36592653 1489 356.6875 C1489.1303363 355.7623761 1489.26067261 354.8372522 1489.3949585 353.88409424 C1491.23599465 340.7895854 1492.92111124 327.68846957 1494.46313477 314.55566406 C1495.90208431 302.41003608 1497.60917815 290.30574696 1499.32611084 278.19674683 C1501.21837932 264.83291677 1502.98128559 251.45912588 1504.625 238.0625 C1505.9590327 227.19120094 1507.33787969 216.33619075 1508.9375 205.5 C1510.77963834 193.00246641 1512.33103773 180.47471919 1513.875 167.9375 C1515.89456526 151.54578038 1518.04778903 135.18114243 1520.37042236 118.82971191 C1522.73590296 102.15710913 1524.89676062 85.46172617 1526.99609375 68.75366211 C1528.24543319 58.8219559 1529.53266979 48.90237673 1531 39 C1530.82984375 39.62640381 1530.6596875 40.25280762 1530.484375 40.89819336 C1526.86553259 54.16206889 1523.01312949 67.31331357 1518.77368164 80.39233398 C1516.06842597 88.74448898 1513.60435383 97.13569639 1511.28759766 105.60400391 C1507.71754838 118.62585131 1503.94305988 131.54095595 1499.77490234 144.38476562 C1497.71783163 150.72815549 1495.77559334 157.07512484 1493.98828125 163.5 C1492.73083709 167.95324097 1491.3981365 172.38218748 1490.0625 176.8125 C1488.25051949 182.827557 1486.45081012 188.8454948 1484.6875 194.875 C1482.3301978 202.92820908 1479.9148482 210.96390746 1477.5 219 C1474.2980995 229.65651637 1471.1223817 240.31990994 1468 251 C1465.11205817 260.86335872 1462.19072882 270.7158788 1459.23071289 280.55786133 C1457.63557041 285.86665496 1456.05867529 291.18039207 1454.5 296.5 C1452.69096301 302.67406818 1450.85300258 308.83898667 1449 315 C1447.20966654 320.9527602 1445.43307382 326.90896346 1443.6875 332.875 C1441.33008667 340.92817706 1438.91484845 348.96390664 1436.5 357 C1433.49570292 366.99885568 1430.50778424 377.00194515 1427.578125 387.02294922 C1426.47138462 390.80773961 1425.36082374 394.59140648 1424.25 398.375 C1424.03891602 399.09598877 1423.82783203 399.81697754 1423.61035156 400.55981445 C1422.77992692 403.38891712 1421.93248846 406.20253463 1421 409 C1420.90660144 410.34396022 1420.86635896 411.69203327 1420.8613348 413.03922558 C1420.85312313 414.27608224 1420.85312313 414.27608224 1420.84474558 415.5379259 C1420.84376747 416.44356022 1420.84278936 417.34919455 1420.84178162 418.28227234 C1420.83684364 419.24447042 1420.83190566 420.2066685 1420.82681805 421.19802409 C1420.81140642 424.43629487 1420.8030725 427.67454577 1420.79467773 430.9128418 C1420.78510209 433.22852759 1420.7750922 435.54421162 1420.76467896 437.8598938 C1420.73758982 444.15909081 1420.71660197 450.45829534 1420.69667697 456.75751853 C1420.67484212 463.33590305 1420.64744121 469.91426427 1420.62062073 476.49263 C1420.57617706 487.53812585 1420.535512 498.58363128 1420.49731445 509.62915039 C1420.45795904 521.00676405 1420.41652138 532.384367 1420.37231445 543.76196289 C1420.36956495 544.47027211 1420.36681544 545.17858133 1420.36398262 545.90835446 C1420.34004828 552.0694948 1420.315956 558.23063452 1420.29184818 564.39177418 C1420.18822059 590.92782884 1420.09496659 617.46390966 1420 644 C1368.85 644 1317.7 644 1265 644 C1265.31066406 628.29792969 1265.62132812 612.59585938 1265.94140625 596.41796875 C1266.08843989 586.24412118 1266.22904149 576.07151182 1266.32177734 565.8972168 C1266.33362147 564.60389856 1266.3454656 563.31058032 1266.35766864 561.97807062 C1266.44335571 552.38131273 1266.50807819 542.78448179 1266.5625 533.1875 C1266.56647974 532.50919477 1266.57045947 531.83088953 1266.57455981 531.13202959 C1267.04478357 450.3194194 1265.51685994 375.1938196 1233.65514851 299.48159885 C1229.64562497 289.89560079 1226.69539961 280.0282539 1224 270 C1223.47768799 268.12284302 1223.47768799 268.12284302 1222.94482422 266.20776367 C1222.10507368 263.14431241 1221.29615459 260.07501785 1220.5 257 C1218.09404427 247.88355549 1215.47866792 238.86095712 1212.67835236 229.85859394 C1210.53339632 222.90075181 1208.59461109 215.9041184 1206.73242188 208.8659668 C1203.22950711 195.74871245 1199.53393827 182.69216993 1195.78125 169.64453125 C1195.11286326 167.31544246 1194.44461286 164.98631455 1193.77648926 162.65715027 C1192.38963355 157.82418052 1191.00129691 152.99163958 1189.61181641 148.15942383 C1187.85111113 142.03582068 1186.09397353 135.91120069 1184.33792877 129.78625965 C1182.96307076 124.99225353 1181.58640298 120.1987685 1180.20921326 115.40543175 C1179.56135814 113.14985702 1178.91400878 110.89413695 1178.26722717 108.63825417 C1174.80960151 96.5827583 1171.31628013 84.54371358 1167.56084442 72.57692432 C1164.73254273 63.4435134 1162.44270631 54.28228396 1160 45 C1159.67 242.67 1159.34 440.34 1159 644 C1110.49 644 1061.98 644 1012 644 C1003 614 1003 614 999.8125 603.3125 C998.19303499 597.9024191 996.53342977 592.51119805 994.80761719 587.13427734 C991.86697916 577.97128007 989.23205799 568.74729201 986.67602539 559.4699707 C984.5137924 551.68320619 982.12350444 543.99376009 979.62524414 536.30932617 C977.0667268 528.37114252 974.83504087 520.35740315 972.625 512.31640625 C970.73493653 505.49023953 968.68961384 498.73567507 966.5 492 C963.61667506 483.1233918 961.04314523 474.18416836 958.55688477 465.18896484 C955.21013759 453.09330741 951.63549988 441.07404538 947.80322266 429.12329102 C944.86925506 419.97035651 942.2341373 410.75854899 939.68261719 401.49194336 C937.47859432 393.5512645 935.0704354 385.69442645 932.48461914 377.86987305 C930.00398112 370.29018734 928.06851004 362.75691264 926 355 C925.67 450.37 925.34 545.74 925 644 C826.33 644 727.66 644 626 644 C623.70183255 626.76374414 623.70183255 626.76374414 623.22216797 619.10229492 C623.13394775 617.79174133 623.13394775 617.79174133 623.04394531 616.45471191 C622.8551088 613.63026437 622.67342143 610.80541342 622.4921875 607.98046875 C622.36087017 605.98559835 622.22920041 603.99075112 622.09719849 601.9959259 C621.823514 597.84359375 621.55324921 593.69105839 621.28564453 589.53833008 C620.94393358 584.23813609 620.59480855 578.93846242 620.24328423 573.63891125 C619.971382 569.53052494 619.70277834 565.42192819 619.435215 561.31325722 C619.30770031 559.35933103 619.1793265 557.4054607 619.05004501 555.45165062 C618.86979922 552.71821026 618.69385596 549.98452494 618.51904297 547.25073242 C618.46608063 546.45933365 618.41311829 545.66793488 618.35855103 544.85255432 C618.00352919 539.2002251 618 533.69316079 618 528 C597.87 528 577.74 528 557 528 C557 531.63 557 535.26 557 539 C556.83581813 541.6987332 556.63412324 544.395532 556.38916016 547.08813477 C556.32409775 547.81850952 556.25903534 548.54888428 556.19200134 549.3013916 C555.97887616 551.68182893 555.75895872 554.06158576 555.5390625 556.44140625 C555.38643671 558.134555 555.23429641 559.82774757 555.08261108 561.52098083 C554.6831483 565.96810991 554.2781569 570.41471663 553.87164307 574.86120605 C553.22713561 581.92000612 552.59083308 588.97954857 551.95502853 596.03913689 C551.73647008 598.45680959 551.51539387 600.8742402 551.29385376 603.29164124 C550.06420728 616.85494881 549.0448848 630.41649754 548 644 C444.38 644 340.76 644 234 644 C230.7 630.14 227.4 616.28 224 602 C222.35 595.73 220.7 589.46 219 583 C217.99730788 578.75272429 217.01163442 574.50865267 216.0625 570.25 C214.18362127 561.95853257 212.18811131 553.71523998 210 545.5 C207.54377559 536.27656143 205.36164805 527.00849986 203.25219727 517.70019531 C201.39271241 509.55364959 199.32841999 501.4767045 197.1796875 493.40234375 C195.23934978 486.05750515 193.53723772 478.67548439 191.89208984 471.25976562 C190.42597447 464.71523156 188.78716809 458.23084039 187.0625 451.75 C184.58738324 442.44609956 182.38172492 433.09896004 180.25463867 423.70996094 C178.39746935 415.57217159 176.36553342 407.49320182 174.1796875 399.4375 C171.82610403 390.66505254 169.97885233 381.90483549 168 373 C167.67 462.43 167.34 551.86 167 644 C111.89 644 56.78 644 0 644 C0 431.48 0 218.96 0 0 Z " fill="#FEFEFE" transform="translate(32,89)"/>
<path d="M0 0 C1.20204071 0.00182281 2.40408142 0.00364563 3.64254761 0.00552368 C20.80442391 0.04945547 37.76201717 0.17677962 54.6875 3.3125 C56.0477832 3.56193359 56.0477832 3.56193359 57.43554688 3.81640625 C101.97166569 12.39938418 147.72646426 37.23221153 173.75 75.3125 C186.91684203 95.38556802 193.18644627 117.35176592 196.35644531 140.96582031 C196.68367185 143.28536415 197.06425536 145.58984541 197.4609375 147.8984375 C203.08978825 181.65074577 201.6875 216.30519673 201.6875 250.3125 C146.2475 250.3125 90.8075 250.3125 33.6875 250.3125 C33.25 201.1875 33.25 201.1875 33.11938477 185.75341797 C33.07606839 181.13392088 33.07606839 181.13392088 33.03160095 176.51443481 C33.01254951 174.47839769 32.99518903 172.44234426 32.97923279 170.40628052 C34.50250001 140.5336506 34.50250001 140.5336506 23.6875 114.3125 C16.59857775 109.49711656 9.1079685 108.50349694 0.6875 109.3125 C-5.60674429 111.00450115 -9.70072733 113.78861238 -13.3125 119.3125 C-20.57345097 134.37225016 -19.46302985 154.20237784 -19.45967102 170.50587463 C-19.46298024 171.98634321 -19.46670798 173.4668109 -19.4708125 174.94727749 C-19.48072037 178.97562835 -19.48453093 183.00396433 -19.48720181 187.03232563 C-19.49113856 191.39328114 -19.50071413 195.75422522 -19.50941467 200.11517334 C-19.52908356 210.62643825 -19.53923255 221.13770399 -19.54814246 231.64898267 C-19.55165752 235.61845305 -19.55580348 239.58792265 -19.55998212 243.55739238 C-19.57844029 261.09340948 -19.59418627 278.62942661 -19.60188007 296.165452 C-19.60378953 300.44745955 -19.60570993 304.72946709 -19.60766602 309.01147461 C-19.60814976 310.07556252 -19.6086335 311.13965043 -19.6091319 312.23598342 C-19.61741947 329.44559513 -19.64273956 346.65513704 -19.67524669 363.86471833 C-19.70844629 381.58728742 -19.72634038 399.3098212 -19.72952431 417.03242153 C-19.73167739 426.9611631 -19.74024814 436.88980287 -19.76598549 446.81851387 C-19.78786955 455.27952289 -19.79565706 463.74040534 -19.78601871 472.20143945 C-19.78152476 476.50486969 -19.78306728 480.8080398 -19.80278015 485.11143303 C-19.87127246 501.01741949 -19.65066797 516.72083152 -17.59562683 532.51304626 C-17.4488834 533.68207129 -17.30213997 534.85109632 -17.15094978 536.05554634 C-15.94567766 544.16256865 -13.8015939 550.9936058 -7.75 556.75 C-6.5434375 557.5234375 -6.5434375 557.5234375 -5.3125 558.3125 C-4.78269531 558.66699219 -4.25289062 559.02148438 -3.70703125 559.38671875 C-0.03389879 560.80683685 3.5329742 560.68112006 7.4375 560.6875 C8.2109375 560.71199219 8.984375 560.73648438 9.78125 560.76171875 C17.00007652 560.79805513 22.21216016 558.67532439 27.4375 553.6875 C33.74369167 545.13816633 35.01251551 534.51176864 36.6875 524.3125 C36.86091415 523.46589813 37.03432831 522.61929626 37.21299744 521.74703979 C37.86421409 517.03340979 37.86540023 512.37885668 37.89282227 507.62548828 C37.90272186 506.56147293 37.91262146 505.49745758 37.92282104 504.40119934 C37.95433047 500.89509279 37.97915172 497.38897271 38.00390625 493.8828125 C38.02448489 491.44757745 38.0454816 489.01234591 38.06687927 486.57711792 C38.12200591 480.17552529 38.17145665 473.77390093 38.21972656 467.37225342 C38.27001033 460.83668197 38.32566048 454.30115646 38.38085938 447.765625 C38.48832588 434.9479545 38.5893003 422.13024485 38.6875 409.3125 C27.7975 409.3125 16.9075 409.3125 5.6875 409.3125 C5.6875 376.9725 5.6875 344.6325 5.6875 311.3125 C70.3675 311.3125 135.0475 311.3125 201.6875 311.3125 C202.1825 422.6875 202.1825 422.6875 202.6875 536.3125 C205.34037093 517.74240351 207.96276688 499.3651699 210.16210938 480.77172852 C211.48887473 469.57451931 213.04197095 458.41350641 214.625 447.25 C216.64956805 432.97269841 218.5563694 418.68784198 220.3125 404.375 C221.64653221 393.50370494 223.0252339 382.64866708 224.625 371.8125 C226.64766304 358.10160798 228.3195822 344.3510184 230.01333618 330.59640503 C231.64927372 317.33519164 233.37447264 304.09548114 235.3125 290.875 C236.94048827 279.76528312 238.42652434 268.65023355 239.75 257.5 C241.98981155 238.64769971 244.48109837 219.83387339 247.1328125 201.03515625 C247.65131628 197.35680947 248.16956225 193.67842653 248.6875 190 C248.8178363 189.0748761 248.94817261 188.1497522 249.0824585 187.19659424 C250.92349465 174.1020854 252.60861124 161.00096957 254.15063477 147.86816406 C255.58986351 135.72017946 257.29731959 123.61354225 259.01461792 111.50219727 C260.88597778 98.28638735 262.62788655 85.06113715 264.25 71.8125 C265.85622657 58.71065732 267.57017531 45.62983444 269.4375 32.5625 C269.59800339 31.4329187 269.59800339 31.4329187 269.76174927 30.28051758 C270.06235024 28.17097569 270.36630031 26.06195158 270.671875 23.953125 C270.84428711 22.76235352 271.01669922 21.57158203 271.19433594 20.34472656 C271.6875 17.3125 271.6875 17.3125 272.6875 13.3125 C352.5475 13.3125 432.4075 13.3125 514.6875 13.3125 C518.12829211 31.66339126 518.12829211 31.66339126 519.00390625 38.36328125 C519.1568943 39.48877632 519.1568943 39.48877632 519.31297302 40.63700867 C519.62913898 42.96584341 519.94007705 45.29532699 520.25 47.625 C521.97534821 60.52926863 521.97534821 60.52926863 524.17163086 73.36010742 C525.52438029 81.10208511 526.46014199 88.91838656 527.51025391 96.70605469 C528.9109645 107.28875771 528.9109645 107.28875771 530.6875 117.8125 C532.31691524 126.38492556 533.34454403 135.06110789 534.51025391 143.70605469 C535.9109645 154.28875771 535.9109645 154.28875771 537.6875 164.8125 C539.31691524 173.38492556 540.34454403 182.06110789 541.51025391 190.70605469 C542.60960861 198.83694215 543.73499164 206.93308855 545.26757812 214.99609375 C546.11600602 219.67625877 546.5829177 224.40113999 547.125 229.125 C547.50371848 232.17236262 548.02036622 235.17090258 548.59375 238.1875 C550.23007329 246.97516209 551.31606851 255.84993243 552.51025391 264.70605469 C553.9109645 275.28875771 553.9109645 275.28875771 555.6875 285.8125 C557.31691524 294.38492556 558.34454403 303.06110789 559.51025391 311.70605469 C560.60960861 319.83694215 561.73499164 327.93308855 563.26757812 335.99609375 C564.11600602 340.67625877 564.5829177 345.40113999 565.125 350.125 C565.50371848 353.17236262 566.02036622 356.17090258 566.59375 359.1875 C568.23007329 367.97516209 569.31606851 376.84993243 570.51025391 385.70605469 C571.9109645 396.28875771 571.9109645 396.28875771 573.6875 406.8125 C575.31691524 415.38492556 576.34454403 424.06110789 577.51025391 432.70605469 C578.60960861 440.83694215 579.73499164 448.93308855 581.26757812 456.99609375 C582.11600602 461.67625877 582.5829177 466.40113999 583.125 471.125 C583.50371848 474.17236262 584.02036622 477.17090258 584.59375 480.1875 C586.23007329 488.97516209 587.31606851 497.84993243 588.51025391 506.70605469 C589.9109645 517.28875771 589.9109645 517.28875771 591.6875 527.8125 C593.31691524 536.38492556 594.34454403 545.06110789 595.51025391 553.70605469 C596.60960861 561.83694215 597.73499164 569.93308855 599.26757812 577.99609375 C600.11600602 582.67625877 600.5829177 587.40113999 601.125 592.125 C601.50371848 595.17236262 602.02036622 598.17090258 602.59375 601.1875 C604.23007329 609.97516209 605.31606851 618.84993243 606.51025391 627.70605469 C608.17411718 640.01568067 608.17411718 640.01568067 610.33789062 652.24609375 C610.6875 654.3125 610.6875 654.3125 610.6875 657.3125 C553.9275 657.3125 497.1675 657.3125 438.6875 657.3125 C436.38854582 630.87452689 436.38854582 630.87452689 435.6875 619.84765625 C435.56649933 617.99262985 435.56649933 617.99262985 435.4430542 616.10012817 C435.18876247 612.19190569 434.9380214 608.28346579 434.6875 604.375 C434.51249528 601.66899741 434.33677096 598.96304162 434.16113281 596.25708008 C432.9741791 577.94402211 431.81468965 559.62933183 430.6875 541.3125 C410.8875 541.3125 391.0875 541.3125 370.6875 541.3125 C370.3575 546.2625 370.0275 551.2125 369.6875 556.3125 C369.45464205 559.36173269 369.21700613 562.40917219 368.96313477 565.45654297 C368.89792633 566.25072632 368.8327179 567.04490967 368.76553345 567.86315918 C368.5546163 570.42711052 368.34190887 572.99090863 368.12890625 575.5546875 C367.9781637 577.37582221 367.82744292 579.19695872 367.67674255 581.01809692 C367.36246092 584.81178176 367.04713678 588.60537835 366.73120117 592.39892578 C366.33061067 597.21129344 365.9338383 602.02396762 365.5380106 606.83672905 C365.22855502 610.59144668 364.91642055 614.34593833 364.60359001 618.10037613 C364.45635227 619.87254114 364.31004369 621.64478365 364.16476631 623.41711044 C363.95974292 625.91487214 363.75089852 628.41228991 363.54125977 630.90966797 C363.48456619 631.61044464 363.42787262 632.31122131 363.36946106 633.03323364 C362.67908808 641.15764635 361.64191757 649.19995066 360.6875 657.3125 C273.2375 657.3125 185.7875 657.3125 95.6875 657.3125 C88.2625 635.0375 88.2625 635.0375 80.6875 612.3125 C76.7275 617.9225 72.7675 623.5325 68.6875 629.3125 C50.09229776 651.07284305 24.98086315 667.62713002 -4.24121094 670.13378906 C-51.2369259 672.8683569 -95.22629511 663.18153006 -131.3125 631.3125 C-132.28703125 630.47074219 -133.2615625 629.62898437 -134.265625 628.76171875 C-150.2199442 614.75811242 -160.68434072 598.09052988 -170.3125 579.3125 C-170.77527344 578.44753906 -171.23804688 577.58257813 -171.71484375 576.69140625 C-178.92137808 562.30136165 -182.80750267 544.37775661 -184.3682251 528.38809204 C-184.450931 527.56595927 -184.5336369 526.7438265 -184.61884904 525.89678061 C-185.4544067 517.31045211 -186.01169068 508.71933052 -186.42089844 500.10302734 C-186.46282302 499.23346177 -186.50474761 498.36389619 -186.54794264 497.46798015 C-187.76044588 471.43050238 -187.60682741 445.36152001 -187.58310081 419.3022661 C-187.57846675 414.07578845 -187.57798676 408.84932382 -187.58013153 403.6228447 C-187.580438 402.86737887 -187.58074446 402.11191305 -187.58106022 401.33355432 C-187.58169992 399.79697908 -187.58234835 398.26040384 -187.5830054 396.7238286 C-187.58865097 382.45867234 -187.58224176 368.19354217 -187.57140467 353.92839019 C-187.56246343 341.78411564 -187.56403728 329.63987935 -187.57324219 317.49560547 C-187.58402934 303.25796172 -187.58811359 289.02034054 -187.58201766 274.78269327 C-187.58138081 273.25488242 -187.58075207 271.72707157 -187.58013153 270.19926071 C-187.57982298 269.44829318 -187.57951443 268.69732564 -187.57919653 267.92360152 C-187.5774955 262.72223114 -187.58036575 257.52087569 -187.58509064 252.3195076 C-187.6468567 177.79573165 -187.6468567 177.79573165 -183.30004883 142.69604492 C-182.99190067 140.18397302 -182.71128833 137.669686 -182.43164062 135.15429688 C-177.87793096 96.14437889 -160.03127357 65.09337432 -129.27734375 40.59375 C-106.50000517 23.06810345 -82.0433778 10.88463951 -53.875 4.625 C-52.97064209 4.42245605 -52.06628418 4.21991211 -51.13452148 4.01123047 C-34.05574378 0.38272786 -17.40360084 -0.05433833 0 0 Z " fill="#FEFEFE" transform="translate(2077.3125,75.6875)"/>
<path d="M0 0 C0.33 0 0.66 0 1 0 C2.39660477 14.3432796 3.68607949 28.6935879 4.91059303 43.0525341 C5.21768863 46.65226816 5.52623735 50.25187531 5.83512878 53.85145569 C6.71213282 64.07389705 7.58697995 74.29652227 8.46020508 84.51928711 C10.80546083 111.96550174 13.18769277 139.40722288 15.73046875 166.8359375 C15.83489603 167.96341337 15.93932331 169.09088924 16.04691505 170.25253105 C17.89683683 190.19004355 19.94623822 210.09097305 22.29296875 229.9765625 C22.40734283 230.94896378 22.52171692 231.92136505 22.63955688 232.92323303 C23.21212289 237.790946 23.78882635 242.65807593 24.375 247.52416992 C24.58737796 249.31427395 24.7996235 251.1043937 25.01171875 252.89453125 C25.11155563 253.70995392 25.21139252 254.52537659 25.31425476 255.36550903 C25.45006706 256.52226639 25.45006706 256.52226639 25.58862305 257.70239258 C25.6683989 258.36628494 25.74817474 259.03017731 25.83036804 259.71418762 C26.05947886 262.80148526 26 265.90421278 26 269 C7.19 269 -11.62 269 -31 269 C-31 255.49711995 -31 255.49711995 -30.43676758 249.84667969 C-30.25047035 247.93730873 -30.25047035 247.93730873 -30.06040955 245.98936462 C-29.92199594 244.63351304 -29.78336375 243.27768375 -29.64453125 241.921875 C-29.50090424 240.47888628 -29.35769019 239.03585641 -29.21485901 237.5927887 C-28.83426632 233.76702806 -28.44546246 229.9421477 -28.05419159 226.11746597 C-27.81100211 223.73532752 -27.57001411 221.35297571 -27.32965088 218.97055054 C-25.13604684 197.24924099 -22.73138793 175.57302525 -19.88609314 153.92654419 C-18.76191025 145.30209705 -17.79606416 136.65966951 -16.81478882 128.01803589 C-15.06474075 112.62931942 -13.13498035 97.28268498 -10.94970703 81.94995117 C-8.85695661 67.22848125 -6.9928899 52.47928588 -5.14282227 37.72558594 C-3.55830143 25.13046923 -1.83490262 12.56109459 0 0 Z " fill="#020202" transform="translate(1696,234)"/>
<path d="M0 0 C2.55425475 2.55425475 2.35455891 3.72992978 2.60668945 7.28930664 C2.69070511 8.40876175 2.77472076 9.52821686 2.86128235 10.68159485 C2.94444199 11.91202011 3.02760162 13.14244537 3.11328125 14.41015625 C3.25821807 16.38081966 3.4031624 18.35148254 3.54840374 20.32212353 C3.702707 22.43746889 3.85265602 24.55308463 4.00146484 26.66882324 C4.4729505 33.36077378 4.97477788 40.05048256 5.47446823 46.74037552 C5.6455329 49.0329552 5.81564309 51.32560456 5.98574829 53.61825562 C7.04468559 67.83879345 8.23947241 82.04585157 9.5 96.25 C9.65427963 97.99037033 9.65427963 97.99037033 9.81167603 99.76589966 C10.53003044 107.84494976 11.26124849 115.92279109 12 124 C12.1546875 125.69129028 12.1546875 125.69129028 12.3125 127.41674805 C17.8693824 188.59063283 17.8693824 188.59063283 24.83227539 249.6159668 C24.98688232 250.86676025 25.14148926 252.11755371 25.30078125 253.40625 C25.43653564 254.47166016 25.57229004 255.53707031 25.7121582 256.63476562 C26.06351988 260.74262772 26 264.87713861 26 269 C7.19 269 -11.62 269 -31 269 C-30.38521696 256.08955622 -29.68705636 243.4290521 -28.25 230.625 C-28.07206139 228.99852052 -27.89475572 227.37197169 -27.71801758 225.74536133 C-27.43756852 223.16644829 -27.15647448 220.58761758 -26.87287903 218.00904846 C-26.18044858 211.70774579 -25.51923159 205.40365535 -24.87109375 199.09765625 C-21.77249162 169.07118517 -18.16468761 139.11658744 -14.39776611 109.16717529 C-14.02892508 106.23031325 -13.66212728 103.29320658 -13.29638672 100.35595703 C-10.88743184 81.02054628 -8.28035392 61.72260205 -5.48574829 42.4390564 C-3.43960882 28.31565573 -1.56956649 14.18564833 0 0 Z " fill="#020202" transform="translate(2477,234)"/>
<path d="M0 0 C0.33 0 0.66 0 1 0 C2.4816383 16.6629679 3.95304914 33.32657542 5.359375 49.99609375 C10.94105328 116.09582489 16.77667471 182.18702468 24.42626953 248.08374023 C24.53111664 248.99129562 24.63596375 249.89885101 24.74398804 250.83390808 C24.94109075 252.538355 25.13960447 254.24263953 25.3397522 255.94673157 C25.69037995 258.98300623 26 261.94059781 26 265 C7.19 265 -11.62 265 -31 265 C-31 254.35054782 -30.75471276 244.26405754 -29.64453125 233.75 C-29.50066415 232.33484859 -29.35741074 230.91963469 -29.21472168 229.50436401 C-28.83587669 225.77036351 -28.44640889 222.03755001 -28.05398941 218.30495453 C-27.81044901 215.98042382 -27.57004342 213.65558949 -27.33065796 211.33062744 C-25.10019272 189.67611296 -22.65496164 168.06062022 -19.82649231 146.47546387 C-18.87301399 139.14163639 -18.05662727 131.79375263 -17.24304199 124.44332886 C-15.78564051 111.29103076 -14.10893333 98.18549169 -12.24563599 85.08462524 C-10.51062461 72.88387324 -8.93809087 60.66919368 -7.4375 48.4375 C-5.98750046 36.64909847 -4.48064558 24.87593134 -2.75 13.125 C-2.58685303 12.00794678 -2.42370605 10.89089355 -2.25561523 9.73999023 C-1.12800826 2.25601651 -1.12800826 2.25601651 0 0 Z " fill="#020202" transform="translate(619,238)"/>
<path d="M0 0 C2 2 2 2 2.1953125 4.3828125 C2.17210938 5.28773438 2.14890625 6.19265625 2.125 7.125 C2.10695313 8.03507813 2.08890625 8.94515625 2.0703125 9.8828125 C2.03550781 10.93082031 2.03550781 10.93082031 2 12 C1.01 12 0.02 12 -1 12 C-0.67 8.04 -0.34 4.08 0 0 Z " fill="#4E4E4E" transform="translate(2477,234)"/>
<path d="M0 0 C0.33 0 0.66 0 1 0 C1.95261487 4.76307437 2.08333357 9.1666528 2 14 C0.48046875 12.85546875 0.48046875 12.85546875 -1 11 C-1.07421875 8.30078125 -1.07421875 8.30078125 -0.6875 5.3125 C-0.56761719 4.31863281 -0.44773437 3.32476562 -0.32421875 2.30078125 C-0.21722656 1.54152344 -0.11023437 0.78226563 0 0 Z " fill="#4A4A4A" transform="translate(1696,234)"/>
</svg>
